<?xml version="1.0" encoding="utf-8"?>
<!-- Generator: Adobe Illustrator 22.0.1, SVG Export Plug-In . SVG Version: 6.00 Build 0)  -->
<svg version="1.1" id="_x36_" xmlns="http://www.w3.org/2000/svg" xmlns:xlink="http://www.w3.org/1999/xlink" x="0px" y="0px"
	 viewBox="0 0 200 200" style="enable-background:new 0 0 200 200;" xml:space="preserve">
<style type="text/css">
	.st0{clip-path:url(#SVGID_2_);}
	.st1{fill:#DCA785;}
	.st2{fill:#FFFFFF;}
	.st3{fill:#FC8251;}
	.st4{opacity:0.8;}
	.st5{clip-path:url(#SVGID_4_);}
	.st6{opacity:0.85;}
</style>
<g>
	<g>
		<defs>
			<rect id="SVGID_1_" x="-64.9" y="-52" width="344.5" height="344.5"/>
		</defs>
		<clipPath id="SVGID_2_">
			<use xlink:href="#SVGID_1_"  style="overflow:visible;"/>
		</clipPath>
		<g class="st0">
			<g>
				<path class="st1" d="M460,32.9c-1.9-9.2-8.6-18.1-21.1-14.4c-12.4,3.7-10.7,16-7.4,17.5c3.3,1.4,6.7-1.4,7.5-1.6
					c0.9-0.1,1.3,3.2,1.6,3.7c0.3,0.5,4.8,15.5,4.6,23.5c-0.2,8-6.6,28.6-7.2,29.4c-0.6,0.9-1.5-1.9-1.5-1.9s-4-2.8-4.7-1.3
					c-0.7,1.6-0.4-0.9-0.4-0.9s-3.5-11.7-7.8-14.8c-1.3-0.9-2.1-3-2.9-3.3c-1.8-0.8-2.6,1.2-2.9,1.5c-0.5,0.5-4.8,13.2-4.8,13.2
					l-0.7,0.3c0,0-27.7,9.8-32,11.9c-7.6-5-18.9-7.2-22.3-5.5c-0.5,4,7.6,19.8,8.2,20.6c0.6,0.8-10.4-1.8-8.3,0s5.3,6.9,5.3,6.9
					s-5.3-0.9-3.6,1.7c1.6,2.6,4.1,6.1,5.7,7.2c1.6,1.1,1.2,3.5,3,3.2c1.8-0.4,0.4,3.9,3.5,3.4c3-0.4-1.7,2.3,1.9,4
					c3.6,1.7,8.2,2.2,8.2,2.2s-8.7,10.6-11.8,16.4c-3.1,5.8-8.3,23-5.6,33.4c2.7,10.4,4.8,13.2,11.8,14.4c2.5,0.4,4.2,0.5,5.3,0.5
					c0.7,0,1.2-0.1,1.5-0.2c0.7-0.2,0.8-0.4,0.8-0.4l-0.4,1.9l-1.4,6.2h67.6c2.6-9,5.1-19.5,5.5-28.3c0.9-19.9-2.2-33.9-2.2-33.9
					l-3.8-21.7l-0.2-1.2c0,0,8.9-27.2,11-49.1C462.1,55.7,461.9,42.1,460,32.9z"/>
				<path class="st2" d="M418,108.8c4.6-2.1,4.8-8.8,3.8-10.7s-4.3,0.8-7.6,3.3c-3.3,2.5-5.8,7.5-3.9,9.9
					C410.4,111.4,413.4,110.9,418,108.8z"/>
				<path class="st2" d="M389.9,109.8c-6.3-0.2-8.2,2.1-8.3,3.4s4.1,4.4,7.5,4.7c3.4,0.4,8.3-2.9,9.8-4.9
					C398.9,113.1,396.3,110.1,389.9,109.8z"/>
				<path class="st2" d="M409.7,117.1c1.3-1,5.5-3.9,8.4-3.3c2.9,0.6,4.2,4.9,3.6,11.8c-0.6,6.9-2.5,12-10,12.3
					c-7.5,0.4-4.5-1.5-10.6-4.5s-6.4-11.6,0.6-13.9C401.6,119.6,408.4,118.1,409.7,117.1z"/>
				<path class="st3" d="M409.1,123.2l-3.3,4.8c0,0,5.5,7,8.3,6.7c2.8-0.3,0.7-8.3,0-10.1L409.1,123.2z"/>
				<path class="st2" d="M441.2,139.7c-5.8-8.2-8.8-8.6-13-6.7c-4.2,1.9-13.3,8.4-27.2,9.1c-5.3,4.5-5.2,7.5-6.3,8.3
					s-10.8,7.2-11.9,16.4c-1.1,9.2,8.1,13.5,10.3,13.5s0.9,9.4,0.8,18.5c0,3.4-1.3,7.1-2.4,11c-0.2,0.6-0.4,1.3-0.5,1.9
					c0,0.1-0.1,0.2-0.1,0.2h46.6C443.1,188.1,445.8,146.1,441.2,139.7z"/>
				<path class="st2" d="M439.8,34.7c0,0-0.7-0.3-3,1.1c-2.3,1.4-7,0.9-7.7-1.9c-0.8-2.9-2.5-15.9,14.5-16.7s17.8,27.1,17.8,27.1
					s-10.7,3.6-18.8,0L439.8,34.7z"/>
				<path d="M429.4,86.2c0.3,0.7,0.6,1.6,0.7,2.3s0.6,0.8,1,0.2c0.4-0.6,0.9-2.1,0.6-4.6c-0.3-2.5-0.5-3.6-0.5-4.3
					c-0.1-0.7-0.1-1-0.6-1.8c-1-1.5-2.7-3.7-5-6.4c-1.2-1.3-2.3-2-3.2-2.3s-1.5-0.3-1.8-0.4c-0.3-0.2-0.1,0.2,0.4,1s1.4,2,2.6,3.7
					c1.2,1.7,2.7,3.7,3.7,5.6c0.9,1.8,1.3,4.1,1.3,5.9C428.9,85,429.1,85.5,429.4,86.2z"/>
				<path d="M418.9,71c0.2-0.5,0.5-1.1,0.8-1.5c0.3-0.4,0.2-0.6-0.3-0.4c-0.5,0.2-1.4,0.8-2.4,2.3c-1,1.4-1.4,2.1-1.7,2.5
					c-0.3,0.4-0.4,0.5-0.6,1.1c-0.4,1.1-1,3-1.6,5.5c-0.6,2.4,0,3.5-0.1,4c0,0.2,0.2,0.1,0.4-0.6c0.3-0.6,0.6-1.7,1.1-3.2
					s1-3.2,1.6-4.7s1.5-2.9,2.3-4C418.6,71.9,418.7,71.5,418.9,71z"/>
				<path d="M406,87.2c0.9-0.4,2-0.9,2.8-1.2c0.9-0.3,0.9-0.8,0-1c-0.9-0.3-2.9-0.4-5.9,0.3c-6.1,1.4-5.3,0.7-7.3,1.5
					c-2.2,0.8-5.4,2.6-9.3,4.8c-3.9,2.2-4.9,4-5.7,4.4c-0.4,0.2,0,0.3,1.3,0.1c1.3-0.2,3.4-0.9,6-2.2c2.7-1.3,5.4-2.9,8.2-3.8
					c0.6-0.2,1.5-0.4,2.2-0.6c0.7-0.2,1.5-0.4,2.2-0.6c1.4-0.4,2.8-0.7,4-0.8C404.5,88,405.1,87.6,406,87.2z"/>
				<path d="M377.6,95.7c0.2,0.1,0.5,0.3,0.8,0.5c0.6,0.4,1.4,0.9,1.9,1.3c0.5,0.4,0.8,0.4,0.5-0.3c-0.3-0.6-1.1-1.8-3.1-3.4
					c-2-1.5-2.9-2-3.4-2.4c-0.5-0.4-0.8-0.5-1.5-0.8c-1.6-0.5-4.3-1.3-7.8-1.4c-3.5-0.1-4.8,0.8-5.5,0.8c-0.3,0,0,0.2,0.9,0.2
					c0.9,0.1,2.5,0.2,4.7,0.4c2.2,0.2,4.5,0.7,6.7,1.5c2.2,0.8,4.1,2.1,5.5,3.3C377.3,95.5,377.4,95.6,377.6,95.7z"/>
				<path d="M360.1,92.8c-0.3-0.8-0.7-1.7-1-2.4c-0.2-0.7-0.7-0.8-1.1,0c-0.4,0.7-0.7,2.2-0.4,4.9c0.3,2.7,0.6,3.9,0.7,4.7
					c0.2,0.8,0.2,1,0.7,1.8c1,1.5,2.5,4.1,4.6,7.3c1.1,1.6,2.3,2.4,3.2,2.8c0.9,0.4,1.6,0.4,1.9,0.6c0.3,0.2,0.2-0.3-0.4-1.1
					c-0.5-0.8-1.3-2.2-2.4-4.2s-2.4-4.3-3.5-6.6c-0.3-0.6-0.6-1.2-0.8-1.7c-0.2-0.5-0.4-1-0.5-1.6c-0.3-1.1-0.4-2.1-0.4-3.2
					C360.8,94.1,360.5,93.6,360.1,92.8z"/>
				<path d="M402,101.2c0.6,0.7,1.1-0.3-0.5-3s-1.1-2.5-1.8-3.3c-0.8-0.8-1.9-2.3-3.5-3.9c-0.9-0.8-1.7-1.2-2.3-1.3s-1,0-1.2-0.1
					c-0.2-0.1-0.1,0.2,0.4,0.5c0.4,0.4,1.1,1,2.1,2.1c1.8,2.1,3.9,5,5,7.3C400.1,99.5,401.3,100.5,402,101.2z"/>
				<path d="M391.2,103.5c0.2,0,0.5,0.1,0.7,0.1c0.6,0.1,1.3,0.4,1.8,0.7c0.5,0.3,0.8,0.2,0.5-0.4c-0.2-0.6-1.2-1.7-3.3-2.4
					c-1.1-0.3-1.8-0.4-2.4-0.5c-0.6-0.1-1-0.1-1.2-0.2c-0.6-0.1-0.8-0.1-1.5,0.1c-0.4,0.1-0.8,0.2-1.2,0.3c-0.2,0.1-0.5,0.1-0.7,0.2
					c-0.3,0.1-0.5,0.2-0.8,0.3c-0.6,0.2-1.1,0.5-1.8,0.8c-0.6,0.4-1.2,0.7-1.9,1.2c-0.6,0.4-1.1,0.9-1.4,1.3
					c-0.3,0.4-0.6,0.9-0.7,1.2c-0.3,0.7-0.4,1.2-0.6,1.4c-0.2,0.2,0.1,0.1,0.7-0.4s1.6-1.4,3.1-2.3c1.5-0.9,3.4-1.7,5.3-2
					c1.9-0.3,3.8-0.1,5.2,0.5C390.9,103.4,391,103.4,391.2,103.5z"/>
				<path d="M407.2,98.1c-0.1,0.5-0.2,1.1-0.2,1.6c-0.1,0.4,0.2,0.6,0.5,0.3c0.4-0.3,0.9-1,1.6-2.2c0.8-1.2,1.3-1.5,1.6-1.7
					c0.3-0.2,0.4-0.3,0.7-0.6c0.6-0.7,2-1.7,4.1-1.9c2-0.2,3-0.7,3.4-0.6c0.2,0,0.1-0.2-0.5-0.4c-0.6-0.3-1.7-0.6-3.3-0.5
					c-1.6,0.1-3.3,0.7-4.7,1.8c-1.4,1-2.4,2.3-3.2,3.4C407.4,97.2,407.3,97.6,407.2,98.1z"/>
				<path d="M416.3,84.6c0,0.7,1,0.4,1.5-1.6c0.6-2.1,0.9-1.7,0.9-2.4c0.1-0.7,0.3-2,0.9-3.4c0.6-1.4,0.2-2.3,0.3-2.6
					c0.1-0.3-0.9,0.2-1.8,2.1c-1,1.9-1.4,4.4-2.1,6.1C416,82.8,416.3,83.9,416.3,84.6z"/>
				<path d="M376.8,99.6c0.8,0.3,0.8-0.7-1.7-2.4c-2.5-1.7-2-1.7-2.9-2.1c-1-0.4-2.6-1.2-4.7-1.9c-2.1-0.7-3.2,0-3.6-0.1
					c-0.2,0-0.1,0.2,0.5,0.5c0.5,0.3,1.4,0.7,2.7,1.2c2.5,1,5.4,2.6,7.4,4.2C374.5,99,376,99.3,376.8,99.6z"/>
				<path d="M421.8,98.3c-1.5,0.5-3.1,1.2-4.4,2.2c-1.6,1.3-2.7,2.2-3.4,3c-0.8,0.8-1.4,1.6-1.8,2.8c-0.7,2.2-1.6,3.1-2.4,3.2
					c-0.8,0.1-1.3-0.7-0.7-1.9c1.2-2.3,4-5.8,7.5-8.2c1.7-1.2,3.2-2.2,4.5-3c1.4-0.8,2.7-1.2,4.2-1.3c3,0.1,2.1,2.5,0.5,2.5
					C424.7,97.7,423.2,97.8,421.8,98.3z"/>
				<path d="M409.7,107.6c-0.2-0.6-1.1-0.1-0.9,1.9c0.2,2-0.2,1.8,0.1,2.5c0.3,0.7,0.9,1.9,1.5,3.2c0.7,1.3,1.6,1.5,1.7,1.7
					c0.1,0.3,0.4-0.8-0.3-2.5c-0.3-0.9-0.8-1.7-1-2.6c-0.2-0.9-0.4-1.9-0.4-2.7C410.6,109,409.9,108.1,409.7,107.6z"/>
				<path d="M391,109.1c1.6,0,2.9,0.2,4,0.5s2,0.7,2.8,1c1.6,0.8,2.8,1.7,4.2,3.1c1.3,1.4,1.8,2.7,2.1,3.6c0.2,1,0.1,1.6-0.2,1.9
					c-0.5,0.7-1.5,0.1-2-1.4c-0.6-1.5-1.4-3.6-3.4-5.1c-1-0.7-2.2-1.3-3.5-1.7c-1.3-0.4-2.7-0.6-4.1-0.6c-2.8,0-5,0.7-6.8,1.5
					c-1.8,0.8-3.3,1.7-4.9,2.4c-1.6,0.8-2.5,0.7-2.8,0.2c-0.3-0.5,0.1-1.6,1.3-2.2C380.9,110.7,385.9,109.2,391,109.1z"/>
				<path d="M383.1,113.8c-0.2-0.2-0.5-0.5-0.8-0.7c-0.3-0.3-0.4-0.6-0.6-0.9c-0.3-0.5-0.6-0.6-0.6,0.1c0,0.2,0,0.4,0.1,0.7
					c0,0.1,0.1,0.3,0.1,0.4c0.1,0.1,0.1,0.3,0.2,0.5c0.3,0.7,0.9,1.5,1.9,2.3c2,1.5,3,1.8,3.6,2.1c0.6,0.2,0.8,0.4,1.7,0.4
					c0.8,0,1.9,0.1,3.3-0.2c1.3-0.2,2.8-0.7,4.3-1.5c0.8-0.4,1.3-1,1.7-1.4c0.4-0.5,0.6-1,0.8-1.3c0.3-0.8,0.4-1.3,0.5-1.6
					c0.2-0.3-0.1-0.1-0.7,0.5c-0.6,0.6-1.6,1.7-3.3,2.5c-1.7,0.9-3.9,1.3-6,1.1c-2.1-0.2-4.1-1.1-5.2-2.3
					C384,114.4,383.6,114.1,383.1,113.8z"/>
				<path d="M422.9,101.1c-0.2-0.6-0.5-1.4-0.7-1.9c-0.2-0.6-0.5-0.6-0.6,0c-0.2,0.6-0.2,1.8-0.2,3.7c-0.1,1.9-0.6,2.5-0.8,2.8
					c-0.3,0.3-0.4,0.4-0.7,0.9c-0.3,0.5-0.9,1.1-1.7,1.6c-0.9,0.6-2,1.1-3.4,1.5c-2.7,0.8-3.7,1.8-4.2,2.1c-0.3,0.1,0,0.2,0.8,0.1
					c0.8-0.1,2.1-0.2,4-0.7c1.9-0.5,4.1-1.3,5.7-3.1c0.8-0.8,1.4-1.9,1.7-3c0.3-1,0.4-2,0.4-2.9
					C423.3,102.2,423.1,101.7,422.9,101.1z"/>
				<path d="M391.5,111.4c1.5,0,2.2,0.9,2.3,1.9c0.1,1.2-0.8,2.7-2.3,3C390,116.1,387.3,111.3,391.5,111.4z"/>
				<path d="M416.9,107.4c-3.2,0.9-3.7-5.9-0.3-4.5c0.7,0.3,1.1,1.2,1.2,2.1c0.2,1.8-0.6,3.9-2.3,3.1"/>
				<path d="M411.5,119.1c-0.6,2.2-1.5,3.7-3.6,2.9c-2.1-0.9-4.6-2.9-2.2-4.6c1.4-1,3.3-1,4.8-1.7
					C411.5,114.5,411.9,117.6,411.5,119.1z"/>
				<path d="M419.6,120.7c-0.4,1-1,2.3-2.3,3.1c-0.7,0.3-1.4,0.4-2,0.5c-0.6,0-1.3,0.1-1.9,0c-0.6,0-1.3-0.1-1.9-0.3
					c-0.3-0.1-0.6-0.1-0.9-0.2l-0.7-0.2h-0.1c-0.1,0-0.1,0.1-0.2,0.2c-0.1,0.2-0.1,0.4-0.2,0.6c-0.2,0.6-0.5,1.2-0.8,1.7
					c-0.6,1-1.4,1.6-2.2,2.1c-0.7,0.5-1.6,0.8-2.4,0.9c-0.8,0.1-1.7,0.2-2.7,0.2c-1.9-0.1-3.2-0.7-4-1.3c-0.8-0.6-1.1-1.2-1.2-1.5
					c0-0.8,1-0.8,2.3,0c0.7,0.4,1.5,0.8,2.5,1.1s2.1,0.4,3.2,0.2c0.6-0.1,1.1-0.3,1.6-0.7c0.5-0.3,1-0.7,1.4-1.2s0.7-1.1,0.9-1.7
					c0.2-0.5,0.5-1.8,1.2-2c0.2,0.1,0.3,0.2,0.5,0.2c0.5,0.2,0.8,0.3,1.1,0.4c0.3,0.1,0.6,0.1,0.9,0.2c0.6,0.1,1.2,0.1,1.8,0.1
					c1.1,0,2.2-0.3,2.8-0.7c0.6-0.5,0.9-1.1,1.1-1.9c0.2-0.8,0.3-1.6,0.5-2.5c0.3-1.8,0.8-2.5,1.3-2.4c0.5,0.1,1,1,0.9,2.3
					C420.1,118.6,420,119.6,419.6,120.7z"/>
				<path d="M396.6,124.6c-0.3,0-0.6,0.1-0.7,0.1c-0.2,0-0.2,0.3-0.2,0.6c0.1,0.3,0.1,0.5,0.3,0.7c0.2,0.2,0.2,0.4,0.2,0.6
					c0,0.1,0,0.2,0.1,0.3c0.3,0.2,0.6,0.6,0.8,1.4c0.2,0.7,1,0.8,1.1,0.9c0,0.1,0.2-0.1,0.3-0.3c0.1-0.2,0.2-0.6,0.2-1
					c-0.1-0.9-0.7-2.1-1.5-3.1C397.1,124.6,396.9,124.6,396.6,124.6z"/>
				<path d="M429.6,93c-0.1,0.4-0.2,0.8-0.4,1.1c-0.2,0.3,0,0.6,0.4,0.5c0.4-0.1,1.1-0.5,1.8-1.5c1.3-2.1,1.4-1.7,1.6-2.5
					c0.2-0.8,0.6-2.2,0.9-4c0.1-0.9,0-1.5-0.2-2c-0.2-0.4-0.5-0.6-0.5-0.8c0-0.2-0.2,0-0.3,0.5c-0.2,0.5-0.4,1.1-0.6,2.1
					c-0.5,1.9-1.3,4.5-2.6,5.8C429.7,92.3,429.7,92.6,429.6,93z"/>
				<path d="M429.7,100.5c-0.3,0.4-0.8,0.9-1.2,1.1c-0.4,0.1-0.7,0.4,0,0.7c0.3,0.1,0.9,0.1,1.5-0.1s1.3-0.7,2-1.4
					c1.3-1.5,1.8-2.1,2.2-2.5c0.3-0.4,0.5-0.5,0.8-1.1c0.5-1.2,1.5-3.2,2.5-5.7c1-2.6,0.4-3.9,0.4-4.4c0-0.3-0.1,0-0.4,0.6
					c-0.3,0.6-0.9,1.7-1.6,3.3c-0.8,1.5-1.6,3.3-2.5,4.9c-0.9,1.6-2,3-3,3.9C430.2,99.7,430,100.1,429.7,100.5z"/>
				<path d="M433.4,102.7c-0.1,0.1-0.2,0.3-0.4,0.4c-0.2,0.1-0.4,0.3-0.6,0.4c-0.2,0.1-0.4,0.2-0.6,0.2c-0.4,0.1-0.5,0.4-0.1,0.6
					c0.2,0.1,0.6,0.3,1.1,0.3c0.3,0,0.6,0,0.9-0.1c0.3-0.1,0.7-0.2,1.1-0.5c1.4-1,1.8-1.6,2.1-1.9c0.3-0.3,0.4-0.4,0.6-0.9
					c0.3-1,0.9-2.6,1.6-4.7c0.7-2,0.4-3,0.6-3.4c0.1-0.2-0.1-0.1-0.6,0.3c-0.5,0.5-1.1,1.3-1.7,2.7c-0.6,1.3-1,2.7-1.7,4
					C435.1,101.4,434.3,102.4,433.4,102.7C433.6,102.5,433.5,102.6,433.4,102.7z"/>
				<path d="M432.1,116.4c-0.2,0.3-0.5,0.5-0.8,0.8c-0.1,0.1-0.3,0.2-0.4,0.4c-0.2,0.1-0.3,0.2-0.4,0.3c-0.6,0.3-0.6,0.5,0,0.3
					c0.7-0.1,2-0.8,3.6-2.5s2.2-2.5,2.6-3c0.4-0.5,0.6-0.6,1-1.3c0.8-1.3,2.2-3.6,3.6-6.6c1.4-3,1.2-4.5,1.3-5.1
					c0-0.7-0.2,1.1-2.2,5c-1.9,3.9-4.7,8.4-7.4,10.8C432.9,115.4,432.6,115.9,432.1,116.4z"/>
				<path d="M428.7,122.6c-0.3,0.2-0.7,0.4-1.1,0.4c-0.3,0.1-0.4,0.3-0.1,0.6s1.1,0.6,2.3,0.4c1.2-0.2,1.8-0.4,2.1-0.4
					c0.3-0.1,0.5-0.1,0.8-0.3c0.7-0.6,1.8-1.4,3-2.7c1.2-1.3,0.9-2.3,1.1-2.6c0.1-0.3-0.8,0.2-2.4,1.5c-0.8,0.6-1.6,1.3-2.5,1.9
					c-0.9,0.5-1.9,0.9-2.7,0.9C429.2,122.2,429,122.4,428.7,122.6z"/>
				<path d="M368.4,112.5c0.2-0.3,0-0.5-0.4-0.5s-0.8,0.1-1.7,0.2c-0.9,0.1-1.4-0.1-1.6-0.2c-0.3-0.1-0.3-0.2-0.7-0.1
					c-0.7,0.1-1.9-0.1-3.4-0.6c-1.4-0.5-2.3-0.1-2.6-0.2c-0.3-0.1,0.2,0.9,2.1,1.8c2,0.9,4.6,1.3,6.7,1.1
					C366.9,114,368,113.1,368.4,112.5z"/>
				<path d="M367,121.5c0.3-0.1,0.3-0.4,0.1-0.6c-0.3-0.2-0.8-0.5-1.7-0.7c-1-0.3-1.3-0.5-1.6-0.7c-0.2-0.2-0.3-0.2-0.6-0.3
					c-0.7-0.1-1.8-0.4-3-1.3c-0.6-0.4-1-0.6-1.3-0.8c-0.2-0.1-0.3-0.2-0.4-0.3c-0.1-0.1-0.1-0.2-0.1-0.3c0-0.2-0.2-0.1-0.3,0.5
					c0,0.6,0.4,1.5,1.3,2.2c1.7,1.4,4.2,2.1,5.9,2.7C365.2,121.9,366.4,121.7,367,121.5z"/>
				<path d="M377.9,128.5c0.7-0.3,1.5-0.6,2.1-0.9s0.6-0.5,0-0.6c-0.7-0.1-1.9,0.1-4.1,0.2c-0.5,0-1,0-1.4,0s-0.7-0.1-1-0.1
					c-0.6,0-0.9-0.1-1.2-0.2c-0.6-0.1-0.8-0.2-1.5-0.2c-1.4-0.1-4-0.4-6.8-1.7c-1.4-0.7-2.3-1.2-3-1.6c-0.7-0.4-1.1-0.7-1.3-1
					c-0.2-0.3-0.2,0,0.2,0.9c0.5,0.8,1.6,2.1,3.6,3.2c4,2.1,9.5,2.5,13.2,2.4C376.7,128.9,377.2,128.7,377.9,128.5z"/>
				<path d="M384.3,132.4c0.7-0.3,1.4-0.9,2-1.2c0.6-0.3,0.6-0.6-0.1-0.6c-0.3,0-0.8,0.1-1.5,0.3c-0.7,0.1-1.6,0.4-2.6,0.7
					c-2.2,0.5-3.2,0.5-3.7,0.5c-0.6,0-0.8-0.1-1.5,0c-1.5,0.2-4.1,0.2-7.1-1c-1.5-0.6-2.6-0.9-3.4-1.1c-0.8-0.2-1.3-0.3-1.6-0.4
					c-0.3-0.2-0.1,0.1,0.6,0.7c0.7,0.6,2,1.5,4.1,2.4c2.1,0.9,4.7,1.4,7.1,1.4c2.5,0,4.8-0.5,6.7-0.9
					C383.1,133.1,383.6,132.8,384.3,132.4z"/>
				<path d="M392.2,136.8c0.3-0.2,0.6-0.5,0.9-0.8c0.3-0.3,0.5-0.6,0.8-0.8c0.5-0.4,0.4-0.7-0.3-0.6c-0.6,0.1-1.7,0.8-3.7,1.6
					s-2.9,0.9-3.4,0.9c-0.6,0-0.8,0-1.4,0.2c-1.4,0.4-3.8,0.7-6.9,0.2c-3-0.6-4.3-0.7-4.9-1c-0.3-0.2-0.2,0.1,0.5,0.8
					c0.7,0.6,2.1,1.4,4.3,1.9c2.2,0.5,4.6,0.5,6.9,0.2c2.3-0.3,4.5-1,6.2-1.8C391.2,137.7,391.7,137.3,392.2,136.8z"/>
				<path d="M424.2,136.3c-2.8,1.9-5.9,3.5-9.3,5c-2.2,0.9-3.9,1.4-5.4,1.7s-2.6,0.5-3.7,0.7c-2.2,0.3-4,0.6-7.4,0.9
					c-3.1,0.3-5.6-0.3-7.2-1.1c-1.6-0.8-2.3-1.7-2.5-2.3c-0.2-0.6,0.2-1,0.9-1c0.3,0,0.8,0,1.2,0.1c0.5,0.1,1.1,0.3,1.7,0.5
					c5.3,1.9,13.7,2,21.7-1c3.9-1.7,6.4-3.6,8.4-5.5c1-1,1.9-1.9,2.8-2.9s1.7-2.1,2.7-3.3c0.2-0.3,0.4-0.6,0.6-0.8
					c0.2-0.3,0.3-0.5,0.5-0.7c0.4-0.4,0.6-0.8,0.9-1c0.5-0.5,1.1-0.7,1.4-0.5c0.4,0.2,0.6,0.7,0.6,1.5c0,0.4-0.1,0.9-0.2,1.4
					s-0.4,1-0.7,1.6C429.5,132.2,426.9,134.4,424.2,136.3z"/>
				<path d="M420.4,114.9c0.2,0.2,0.4,0.5,2.1-1c0.9-0.7,4.5-3.9,8.9-8.2c2.3-2.1,4.8-4.5,7.4-6.8c2.7-2.2,5.6-4.4,8.2-6.5
					c0.5-0.4,1.3-1,2.1-1.8c0.8-0.8,1.8-1.7,2.7-2.5c0.9-0.9,1.8-1.6,2.6-2.2c0.8-0.6,1.5-0.9,1.8-1.1c1.2-0.6,1.4-0.8,1.3-1.1
					s-0.7-0.2-1.9,0.4c-0.6,0.3-2,1.3-3.6,2.9c-1.6,1.6-3.4,3.6-5.6,5.4c-1.4,1.2-7.5,5.5-12.9,10.5c-2.7,2.5-5.3,4.9-7.4,6.8
					c-2.1,1.9-3.7,3.2-4.3,3.6C420.9,113.8,420.2,114.7,420.4,114.9z"/>
				<path d="M424.2,116.3c-0.3,0.2-0.5,0.3-0.5,0.5c0,0.1,0,0.3,0.3,0.4c0.3,0.1,0.9,0,1.8-0.5c0.5-0.2,1.6-1,3.1-2.2
					c0.7-0.6,1.5-1.3,2.5-2s2-1.4,3.2-2.2c2.3-1.6,4.7-3.3,7.4-5c2.6-1.6,5.3-3.3,7.9-4.8c0.5-0.3,1.2-0.7,2.1-1.3
					c0.8-0.6,1.8-1.2,2.7-1.8c1.8-1.3,3.6-2.1,4.2-2.3c1.1-0.4,1.3-0.5,1.3-0.8s-0.6-0.4-1.8,0c-0.6,0.2-1.9,0.9-3.5,2.1
					c-0.8,0.6-1.7,1.2-2.6,1.9c-0.9,0.7-2,1.3-3.1,2c-0.7,0.4-2.5,1.5-4.7,2.8c-2.3,1.3-5.1,3-7.7,4.8c-1.3,0.9-2.6,1.8-3.9,2.6
					c-0.6,0.4-1.2,0.8-1.8,1.2s-1.1,0.8-1.6,1.2c-1.9,1.6-3.5,2.6-4,2.7C424.9,115.9,424.5,116.1,424.2,116.3z"/>
				<path d="M426.8,118.6c0,0.1,0.1,0.3,0.3,0.3c0.3,0,0.8-0.1,1.8-0.6c0.5-0.2,1.6-0.9,3.2-2c0.8-0.5,1.7-1.1,2.7-1.7
					c1.1-0.6,2.2-1.2,3.4-1.8c2.4-1.3,5.2-2.6,8.2-3.7c2.9-1.2,5.9-2.3,8.7-3.4c1.1-0.5,3.3-1,5.5-1.5c1.1-0.3,2.1-0.6,2.9-1
					c0.8-0.4,1.4-0.8,1.7-0.9c0.5-0.4,0.8-0.7,0.9-0.9c0.1-0.2,0-0.3-0.1-0.4c-0.3-0.3-0.6,0.1-1.5,0.7c-0.4,0.3-1.6,1.1-3.4,1.7
					c-1.8,0.7-4.3,1.1-6.7,2.1c-0.8,0.3-2.7,1-5.2,2s-5.6,2-8.5,3.4c-1.5,0.7-2.9,1.4-4.3,2.1c-1.3,0.7-2.6,1.3-3.7,2
					c-2.2,1.4-3.7,2.3-4.3,2.5C427.5,117.8,426.7,118.3,426.8,118.6z"/>
				<path d="M366,112.4c-0.3,0-0.6,0.1-0.7,0.4c-0.1,0.3-0.2,0.9,0.2,1.8c0.3,1,2,4.8,4.6,9.4c0.7,1.2,1.3,2.3,1.8,3.6
					c0.2,0.6,0.5,1.4,0.8,2.1c0.3,0.7,0.7,1.4,1.2,2c1.8,2.4,3.7,4.8,5.7,6.9c0.8,0.8,2.2,2.5,3.8,4c0.8,0.7,1.6,1.4,2.4,1.8
					c0.8,0.4,1.5,0.7,1.8,0.7c0.7,0.1,1.1,0,1.3-0.2c0.2-0.2,0.2-0.5,0-0.8c-0.3-0.7-0.4-0.7-1.1-0.8c-0.3-0.1-1.5-0.3-3-1.3
					s-3.3-2.5-4.8-4.4c-0.5-0.6-1.8-2.1-3.3-4.1c-0.7-1-1.6-2.1-2.3-3.4c-0.7-1.2-1-2.7-1.7-4.2c-0.7-1.5-1.4-2.8-2.1-4.1
					c-0.6-1.3-1.2-2.5-1.7-3.6c-1-2.2-1.5-3.9-1.6-4.4C367.2,113,366.6,112.3,366,112.4z"/>
				<path d="M392.4,127.4c1.2-0.2,1.4-0.4,0.2-0.3c-1.2,0.1-3.8,0.3-8.1,0.3c-4.4,0.1-6.3,0.3-7.4,0.3c-1.1,0.1-1.6,0.1-3,0.4
					c-2.9,0.5-7.8,1.5-13.8,3.2c-6,1.6-8.4,2.6-9.6,2.9c-1.2,0.3,2.1-0.2,10.2-2.3c4-1,8.5-2.1,12.8-2.8c2.2-0.3,4.3-0.6,6.4-0.7
					c2-0.1,4-0.1,5.8-0.2C385.7,128.1,389.9,127.8,392.4,127.4z"/>
				<path d="M390.5,132c1.2-0.3,2.6-0.6,3.7-0.7c1.1-0.2,1.3-0.3,0.2-0.3s-3.4,0.2-7.2,1.1c-3.8,0.9-5.4,1.3-6.4,1.6
					s-1.3,0.4-2.6,0.8c-2.5,0.8-6.6,2.3-11.8,4.3c-5.2,1.9-7.2,2.9-8.3,3.3c-1.1,0.4,1.9-0.3,8.8-2.8c3.5-1.2,7.3-2.6,11-3.8
					c3.7-1.2,7.4-2.2,10.5-2.8C388.4,132.5,389.3,132.3,390.5,132z"/>
				<path d="M415.3,126.9c-0.4-0.6-0.8-1.4-1-2c-0.1-0.3-0.2-0.5-0.4-0.5c-0.1,0-0.3,0.1-0.4,0.5c-0.2,0.7,0,2.2,0.5,4.4
					c0.5,2.2,0.4,3.1,0.3,3.6c-0.1,0.4-0.2,0.6-0.3,0.9c0,0.1-0.1,0.3-0.3,0.4c-0.2,0.1-0.6,0.1-1.1,0c-1-0.3-2.1-1.2-3.1-2.4
					c-2-2.4-3.2-3.3-3.5-3.9c-0.1-0.3-0.3,0-0.1,1c0.2,1,0.7,2.5,2.2,4.4c0.7,0.9,1.6,1.8,2.8,2.6c0.6,0.3,1.3,0.7,2.2,0.7
					c0.2,0,0.4,0,0.7,0c0.2,0,0.5-0.1,0.7-0.2c0.4-0.1,0.9-0.5,1.2-0.8c0.7-0.8,0.8-1.6,0.9-2.3c0.1-0.7,0-1.3-0.1-1.9
					c-0.1-1.2-0.4-2.2-0.6-3.2C416,128,415.7,127.5,415.3,126.9z"/>
				<path d="M372.7,153.7c0.5-1.7,1.4-3.8,2.6-4.9c0.6-0.5,1-0.8,1-1c0-0.1-0.1-0.2-0.3-0.2s-0.6,0-1,0.2c-0.9,0.3-2,1.3-3.1,2.9
					c-1.1,1.6-2.1,3.9-3.1,6.7c-0.5,1.4-1,2.5-1.5,3.6c-0.4,1-0.8,1.9-1.1,2.7c-0.6,1.5-0.9,2.5-1.2,3.3c-0.5,1.5-0.8,2.1-1.1,4.1
					c-0.3,2-0.6,4.8-0.7,8.1c0,3.3-0.2,7.2,0.4,11.6c0.4,2.2,1,3.9,1.6,5.4s1.3,2.6,1.9,3.5c1.2,1.8,2.6,2.6,3.3,2.5
					c0.4,0,0.4-0.1,0.1-0.2c-0.3-0.1-0.8-0.3-1.4-1.2s-1.1-2.3-1.7-4.1c-0.3-0.9-0.6-2-0.8-3.1c-0.1-0.6-0.3-1.2-0.4-1.8
					s-0.2-1.2-0.3-1.9c-0.3-2.7-0.3-5.6-0.2-8.6c0.1-1.5,0.1-3.1,0.2-4.5c0.1-1.5,0.3-2.9,0.6-4.4c0.5-2.9,1.3-5.7,2.2-8.3
					c0.5-1.3,1-2.5,1.5-3.7s1-2.4,1.4-3.6C371.9,156.8,372.2,155.5,372.7,153.7z"/>
				<path d="M382,202.3c-0.3,0.2-0.8,0.5-1.4,0.8c-1.2,0.6-2.9,0.8-4.2,0.7c-1.3-0.1-1.7,0.2-0.5,1c0.3,0.2,0.7,0.4,1.3,0.6
					c0.5,0.2,1.2,0.3,2,0.4c1.6,0.1,3.8-0.2,6.1-1.6c2.2-1.4,3.5-2.8,4.4-3.8s1.4-1.8,1.8-2.3c0.7-1.1,1.1-1.5,1.5-3.2
					c0.2-0.8,0.4-1.8,0.6-2.9c0.1-1,0.3-2.2,0.6-3.4c0.4-2.5,1.1-5.6,1.3-9c0.1-1.9-0.2-3.2-0.4-4.4c-0.2-1.2-0.4-2.2-0.5-3
					c-0.3-1.6-0.3-2.7,0.1-3.3c0.2-0.3,0.1-0.4-0.1-0.2c-0.3,0.2-0.8,0.8-1.1,1.7c-0.4,1-0.6,2.3-0.7,4c-0.1,1.6,0.1,3.6-0.2,5.5
					c-0.2,2.1-0.7,4.3-1.2,6.6c-0.3,1.2-0.5,2.3-0.8,3.5l-0.4,1.8c-0.1,0.5-0.2,1.1-0.4,1.6c-0.6,2.1-1.6,4-2.9,5.5
					c-1.3,1.5-2.8,2.7-4.3,3.3C382.5,201.9,382.3,202.1,382,202.3z"/>
				<path d="M380,178.2c-0.1,1.4-0.3,3.2-0.8,4.3c-0.3,0.6-0.4,0.9-0.4,1.1c0.1,0.2,0.4,0.1,1-0.4c0.5-0.5,1.2-1.4,1.7-2.8
					c0.6-1.4,1-3.3,1.4-5.6c0.4-2.4,0.5-4.1,0.6-5.3c0.2-1.2,0.3-2,0.4-2.6c0.3-1.1,0.4-1.5,0.7-3c0.3-1.4,0.9-3.4,2.1-5.5
					c0.6-1,1.4-2.1,2.4-3.1c0.5-0.5,1-1,1.6-1.4c0.3-0.2,0.6-0.4,0.9-0.6c0.3-0.1,0.6-0.3,1-0.4c1.4-0.4,2.8-0.4,3.9-0.3
					c1.1,0.1,2,0.4,2.6,0.8c0.2,0.1,0.3,0.2,0.4,0.3s0.3,0.2,0.4,0.4c0.2,0.3,0.4,0.5,0.5,0.8s0.2,0.5,0.3,0.7
					c0,0.2,0.1,0.4,0.1,0.6c0,0.3,0.1,0.4,0.2,0.1c0-0.2,0.1-0.4,0.2-0.7c0-0.3,0-0.8-0.1-1.3c-0.2-1.1-1.3-2.5-3-3.2
					c-1.7-0.7-3.9-1-6.5-0.2c-0.3,0.1-0.6,0.2-1,0.4c-0.3,0.2-0.7,0.3-0.9,0.5c-0.5,0.3-1,0.7-1.5,1.1c-1,0.8-1.8,1.8-2.6,2.8
					c-1.6,2-2.7,4.4-3.5,6.8c-0.8,2.4-1,4.9-1.2,7.1c-0.2,2.2-0.4,4.2-0.8,6C380.1,175.6,380.1,176.8,380,178.2z"/>
				<path d="M394.3,155.9c-0.1,0.1-0.3,0.3-0.4,0.5c-0.1,0.2-0.2,0.4-0.4,0.6c-0.1,0.2-0.2,0.4-0.3,0.5c-0.2,0.3,0.1,0.6,0.5,0.6
					c0.4,0.1,0.9-0.1,1.6-0.2c0.7-0.1,1,0.2,1.1,0.3c0.2,0.2,0.2,0.2,0.5,0.2c0.6,0,1.6,0.4,2.4,1.5c0.8,1,1.7,1.2,1.9,1.6
					c0.1,0.1,0.2,0,0.3-0.5s0-1.4-0.6-2.4c-0.6-1-1.6-1.8-2.8-2.4c-0.6-0.3-1.2-0.5-1.9-0.5C395.5,155.6,394.9,155.7,394.3,155.9
					C394.5,155.7,394.4,155.8,394.3,155.9z"/>
				<path d="M397.6,161.6c-0.5,0.1-1.2,0.3-1.6,0.5c-0.5,0.1-0.5,0.4-0.1,0.7c0.4,0.3,1.4,0.5,2.7,0.8c0.6,0.2,0.8,0.5,0.9,0.7
					s0.1,0.4,0.1,0.5c0,0.3,0,0.4,0.1,0.8c0.1,0.4,0.2,1,0,1.7c-0.2,0.7-0.6,1.5-1.4,2.2c-0.8,0.7-1.3,1.2-1.7,1.6
					c-0.4,0.4-0.7,0.7-0.9,0.8c-0.2,0.1,0,0.2,0.7,0.3c0.7,0,2-0.2,3.4-1.3c1.4-1.1,2.4-3.1,2.3-5.1c-0.1-1-0.3-2.1-1-2.9
					c-0.7-0.9-1.7-1.2-2.4-1.4C398.6,161.4,398.1,161.4,397.6,161.6z"/>
				<path d="M438.4,89.3c0.3,0.5,0.7,0.8,1.2,0.7c0.4,0,0.9-0.1,1.2-0.3c0.3-0.3,0.4-0.8,0.5-1.9c0-0.6,0.2-2.1,1-4.4
					c0.4-1.1,0.8-2.5,1.3-4.1c0.4-1.6,0.8-3.2,1.1-5c0.7-3.6,1.2-7.6,1.4-11.8c0.2-4.2-0.3-8.4-1.2-12.3c-0.3-1.5-0.9-4.5-1.6-7.3
					c-0.7-2.8-1.4-5.4-1.5-6.2c-0.4-1.6-0.9-1.7-2-1.4c-1,0.3-1.1,1-0.7,2.4c0.2,0.7,1,2.5,1.9,4.9s2,5.4,2.5,8.6
					c0.2,1.1,0.6,3.7,0.7,7.1c0.1,3.4-0.3,7.6-1,11.7c-0.4,2.1-0.8,4.1-1.3,6c-0.5,1.9-1,3.6-1.6,5.2c-0.6,1.5-1.1,2.9-1.4,4
					c-0.3,1.1-0.5,1.9-0.7,2.3C438,88.1,438.1,88.8,438.4,89.3z"/>
				<path d="M434,19.9c1.8-1.3,4.4-2.6,7.4-3.2c0.8-0.2,1.6-0.2,2.4-0.3c0.4-0.1,0.8,0,1.2,0s0.8,0,1.2,0.1c0.8,0.1,1.6,0.2,2.4,0.5
					c0.8,0.2,1.5,0.5,2.3,0.8c3,1.3,5.3,3.5,6.8,5.4c1.5,1.9,2.2,3.6,2.8,4.9c0.2,0.7,0.5,1.3,0.6,1.8c0.2,0.5,0.3,1,0.4,1.4
					s0.2,0.8,0.3,1.1c0.1,0.3,0.1,0.6,0.2,0.9c0.1,0.5,0.2,1,0.4,1.5c0.7,4.3-3.2,2.7-2.9,0.4c0-0.6,0.1-1.2-0.1-2.8
					c-0.1-0.4-0.1-0.8-0.2-1.4c-0.1-0.5-0.3-1.1-0.5-1.8c-0.2-0.7-0.5-1.4-0.9-2.2c-0.4-0.8-0.9-1.7-1.6-2.6c-1.3-1.8-3.4-3.8-6-5
					c-0.7-0.3-1.3-0.6-2-0.8c-0.7-0.2-1.4-0.3-2.1-0.5c-1.4-0.2-2.9-0.1-4.2,0.1c-2.7,0.5-5.1,1.7-6.6,2.8c-1.6,1.1-2.5,2.1-2.7,2.4
					c-0.7,0.7-1.5,1.9-1.8,3.4c-0.2,0.7-0.3,1.7-0.3,3c0,1.2,0.2,2.6,0.7,3.6c0.1,0.3,0.3,0.4,0.4,0.6c0.2,0.2,0.3,0.3,0.5,0.4
					c0.2,0.1,0.3,0.2,0.5,0.2h0.2h0.2c0.6,0,1-0.4,1.1-0.5c0.3-0.5,1-1,1.7-1.4c0.8-0.4,1.7-0.6,2.6,0.1c1.1,0.8,1.1,1.9,0.4,2.9
					c-0.7,1-2.2,1.9-3.6,2.1c-0.3,0-0.7,0.1-1.3,0.1c-0.3,0-0.6,0-0.9,0c-0.4-0.1-0.7-0.1-1.1-0.3c-0.8-0.3-1.6-0.8-2.1-1.5
					c-0.6-0.7-0.9-1.5-1.1-2.3c-0.4-1.6-0.3-3.2-0.2-4.6c0.1-1.3,0.6-2.6,0.9-3.4c0.5-1.1,1.1-2.2,1.8-3.1
					C431.2,22.5,432.2,21.2,434,19.9z"/>
				<path d="M439.6,30.3c-0.3-0.5-0.6-1.1-0.8-1.7c-0.2-0.5-0.5-0.6-0.8-0.1c-0.3,0.5-0.7,1.8,0,3.8c0.3,1,0.6,1.7,0.9,2.2
					c0.2,0.5,0.5,0.8,0.6,1.1c0.3,0.5,0.5,0.7,1.2,1.1c0.3,0.2,0.8,0.3,1.3,0.5c0.5,0.1,1.1,0.3,1.7,0.2c1.3,0,2.7-0.5,3.9-1.4
					c1.2-0.9,1.6-1.9,1.8-2.6c0.2-0.7,0.2-1.2,0.3-1.4c0.2-0.2-0.2-0.2-0.8,0.3c-0.3,0.2-0.7,0.5-1.2,0.8c-0.5,0.4-1,0.7-1.6,1.1
					c-0.3,0.1-0.6,0.4-1,0.4c-0.3,0.2-0.6,0.2-1,0.2c-0.6,0-1.3-0.1-1.9-0.4c-1.2-0.7-2-2.2-2.2-3.5
					C440.2,31.1,439.9,30.7,439.6,30.3z"/>
				<path d="M449.8,30.2c-0.2-0.3-0.5-0.7-0.6-1c-0.2-0.6-1.6-0.3-1.4,2.1c0.1,1.2,0.2,1.7,0.1,2.1c0,0.4,0,0.5,0.3,0.9
					c0.3,0.4,0.7,0.9,1.3,1.4s1.5,1,2.4,1.2c1,0.2,1.6-0.2,1.9-0.5c0.4-0.3,0.5-0.6,0.7-0.6c0.2,0,0-0.2-0.5-0.4
					c-0.4-0.2-1.2-0.4-1.8-0.7c-0.3-0.1-0.5-0.3-0.8-0.5c-0.2-0.2-0.5-0.5-0.7-0.8c-0.4-0.7-0.6-1.7-0.5-2.5
					C450.2,30.8,450,30.6,449.8,30.2z"/>
				<path d="M462.4,48.7c-0.2-2.8-0.4-6.5-0.8-9.1c-0.2-1.3-0.6-2.1-0.8-2.2c-0.2-0.1-0.3,0.5-0.4,1.7c-0.1,1.3-0.1,3.2-0.4,6
					c-0.1,1.4-0.2,3-0.3,5c0,1.9,0,4,0,6.3c0.3,9.3-0.4,13.1-0.8,15.4c-0.5,2.4-0.7,3.3-0.9,6.4c-0.2,3.1-0.5,7.3-1.1,12.3
					s-1.4,10.9-2.9,17.3s-2.7,10.8-3.7,13.9c-0.5,1.6-1,2.8-1.4,3.8c-0.5,1-0.8,1.7-1.2,2.3s-0.3,0.7,0.1,0.2c0.2-0.2,0.5-0.5,0.9-1
					s0.9-1.1,1.4-1.9c2.1-3.1,4.9-8.9,7-17.6s3.3-18.5,4.3-27.8c0.3-2.3,0.5-4.6,0.8-6.9c0.3-2.3,0.6-4.6,0.6-6.9
					c0.2-4.5,0-8.6,0.1-12.4C462.9,53.7,462.6,51.5,462.4,48.7z"/>
				<path d="M456.2,164.9c-0.2-1.4-0.4-3.9-0.7-6.5c-0.1-1.3-0.3-2.6-0.5-3.9c-0.2-1.2-0.4-2.3-0.5-3.3c-0.3-1.9-0.6-4.4-0.9-7
					c-0.3-2.8-1-5.5-1.5-7.6c-0.4-2.1-1.6-4.9-2.3-7.3c-0.2-0.8-0.5-1.1-0.7-1.2c-0.5-0.3-1,1-1,2.3c-0.1,3.3,0.2,6.3,0.5,9.1
					c0.2,1.4,0.4,2.7,0.6,4.1c0.2,1.3,0.4,2.9,0.9,4.6c0.5,2.1,1.2,4.9,1.9,7.9c0.6,3,1.1,6.5,1.4,10.2c0.3,3.6,0.4,7.4,0.5,11.1
					c0.1,3.6,0,7.1-0.3,10.2c-0.5,6.2-1.9,14.8-3.9,22.3c-0.2,0.8-0.4,1.5-0.6,2.3h2.2c2.3-7.9,3.6-16,3.6-18.3
					c0.1-2.4,1-8.8,1.3-15.1C456.3,172.3,456.5,166.3,456.2,164.9z"/>
				<path d="M383.6,206c0-0.1,0-0.2-0.1-0.3c-0.1-0.5-0.2-1-0.4-1.5c-0.1-0.3-0.1-0.5-0.2-0.8c-0.1-0.7-0.5-0.9-1-0.2
					c-0.1,0.3-0.3,0.6-0.4,1.1c-0.2,0.8-0.4,2-0.6,3.6c-0.2,2.3-0.5,3.3-0.7,4h3c0.1-0.5,0.1-0.9,0.2-1.4c0.1-0.4,0.1-0.8,0.1-1.2
					c0.1-0.7,0.2-1.4,0.3-2C384,207.4,383.8,206.8,383.6,206z"/>
				<path d="M365.4,169.6c0,0.5,0.1,1,0.1,1.4s0.3,0.4,0.6,0.2c0.3-0.3,0.6-0.9,1.1-1.8c0.5-1,1-1.2,1.2-1.4
					c0.3-0.2,0.3-0.2,0.5-0.5c0.4-0.6,1.4-1.6,2.9-2.1c1.5-0.4,2.2-1,2.6-1c0.2,0,0.1-0.2-0.4-0.4s-1.5-0.5-2.8-0.1
					c-1.3,0.3-2.5,1.1-3.5,2s-1.8,2-2.3,3C365.4,168.8,365.4,169.1,365.4,169.6z"/>
				<path d="M373.7,175.7c0.3-0.2,0.8-0.4,1.2-0.4c0.4-0.1,0.5-0.3,0.2-0.6c-0.3-0.3-1.3-0.7-2.8-0.2c-1.4,0.6-2,1-2.3,1.1
					c-0.3,0.2-0.5,0.3-0.8,0.7c-0.6,0.8-1.4,2.3-2.1,4.2c-0.3,1-0.3,1.7-0.1,2.2c0.1,0.5,0.3,0.8,0.3,1s0.2,0,0.4-0.5
					c0.2-0.5,0.6-1.3,1-2.3c0.5-1.1,1.1-2.2,1.9-3.1c0.8-0.9,1.8-1.6,2.6-1.7C373.1,176.1,373.3,175.9,373.7,175.7z"/>
				<path d="M373.4,186.9c0.1-0.4,0.3-1,0.5-1.3c0.2-0.4,0.1-0.6-0.4-0.5s-1.3,0.7-2.1,2.1c-0.7,1.4-1,2-1.2,2.3
					c-0.2,0.4-0.3,0.5-0.4,1c-0.1,1.1-0.3,2.8-0.3,5c0,1.1,0.4,1.9,0.7,2.3c0.3,0.5,0.6,0.7,0.7,0.9s0.2,0,0.2-0.6s0-1.5,0.1-2.8
					c0.1-1.3,0.2-2.7,0.6-4.1c0.3-1.4,0.8-2.7,1.5-3.5C373.2,187.6,373.3,187.3,373.4,186.9z"/>
				<path d="M380.6,192.9c-0.2-0.4-0.5-0.9-0.7-1.3c-0.2-0.4-0.4-0.4-0.6,0c-0.2,0.4-0.3,1.4,0.1,2.9c0.4,1.5,0.6,2.1,0.7,2.5
					s0.1,0.6,0.4,1c0.6,0.9,1.6,2.3,3,4c1.5,1.7,2.7,1.5,3,1.8c0.2,0.1,0.1-0.1-0.2-0.6c-0.3-0.5-0.9-1.3-1.6-2.3
					c-1.5-2.1-3.2-4.9-3.6-7.2C381.1,193.6,380.9,193.3,380.6,192.9z"/>
				<path d="M385.1,183.4c-0.3,0-0.6-0.1-0.8-0.2c-0.2-0.1-0.4,0-0.5,0.4c-0.1,0.3,0,0.9,0.6,1.4c1.2,1,0.9,1.1,1.4,1.3
					c0.5,0.1,1.4,0.3,2.6,0.6c1.1,0.2,1.6-0.6,1.8-0.6c0.2,0-0.4-0.7-1.5-1.1c-1.1-0.4-2.6-0.8-3.2-1.7
					C385.6,183.4,385.3,183.4,385.1,183.4z"/>
				<path d="M382.4,172.4c-0.4-0.1-0.9,0.8,0.2,1.6s0.8,1,1.3,1.1s1.3,0.3,2.2,0.6c0.9,0.4,1.5-0.3,1.7-0.2c0.2,0-0.1-0.8-1.1-1.4
					c-1-0.6-2.4-1-3-1.7C383.6,172.5,382.8,172.5,382.4,172.4z"/>
				<path d="M448.9,84.5c-0.4,0.1-0.8,0.2-1.2,0.1c-0.3,0-0.5,0.2-0.3,0.6c0.2,0.4,0.9,0.9,2.2,1c2.5,0.2,2.1,0.5,2.9,0.4
					c0.8-0.1,2.2-0.3,3.6,0.3c1.4,0.6,2.2,0.7,2.5,0.9c0.1,0.1,0.2-0.1,0-0.6c-0.2-0.5-0.8-1.3-2-1.9c-1.2-0.6-2.6-0.7-3.9-0.7
					c-1.3,0-2.4,0-3.3-0.2C449.5,84.3,449.2,84.4,448.9,84.5z"/>
				<path d="M450.1,74.4c-0.5,0.2-0.2,1.3,1.5,1.3c1.6,0,1.4,0.4,1.9,0.2c0.5-0.2,1.5-0.4,2.6-0.4s1.6-0.8,1.8-0.8
					c0.2,0-0.4-0.8-1.9-1.1c-1.5-0.2-3.4,0.2-4.7,0C451.4,73.6,450.6,74.2,450.1,74.4z"/>
				<path d="M453.8,62.5c-0.5,0.2-0.1,0.9,1.8,0.7c1.9-0.1,1.6,0.2,2.2,0s1.7-0.4,3-0.3c1.3,0.1,1.9-0.3,2.2-0.2
					c0.3,0.1-0.3-0.8-2.2-1s-4,0.2-5.6,0.2C455.2,61.8,454.3,62.3,453.8,62.5z"/>
				<path d="M454.3,51.2c-0.2,0.3,0.3,1,1.3,0.8c1-0.3,0.9,0.2,1.3-0.1c0.3-0.2,0.9-0.5,1.7-0.5c0.8,0,1.2-0.7,1.3-0.6
					c0.2,0-0.2-0.8-1.4-1c-1.2-0.2-2.6,0.3-3.6,0.5C454.9,50.2,454.5,50.9,454.3,51.2z"/>
				<path d="M455.6,41.1c-0.2,0.1-0.4,0.2-0.5,0.2s-0.3,0.2-0.4,0.5c0,0.3,0.1,0.6,0.5,0.8c0.9,0.3,0.7,0.6,1,0.5
					c0.3-0.1,0.9-0.2,1.5-0.3c0.6,0,0.7-0.8,0.8-0.8s-0.3-0.7-0.9-0.8c-0.6-0.2-1.4,0.1-1.8-0.3C455.9,40.9,455.8,41,455.6,41.1z"/>
				<path d="M446.2,169.7c-0.3,0.1-0.2,0.4,0,0.6c0.2,0.2,0.5,0.5,1.2,0.7c1.5,0.4,1.1,0.7,1.7,0.7c0.5,0,1.5,0.1,2.5,0.6
					s1.8,0,2,0.1c0.2,0.1,0-0.9-1.4-1.7s-3.2-1.1-4.5-1.6C447.7,169.1,446.8,169.5,446.2,169.7z"/>
				<path d="M449,190.6c-0.4,0-0.9,0-1.3,0s-0.5,0.2-0.3,0.6c0.2,0.3,0.7,0.7,1.6,1.3s1.1,1,1.3,1.2c0.1,0.2,0.2,0.3,0.5,0.5
					c0.6,0.4,1.6,1.2,2.4,2.6c0.8,1.4,1.6,1.7,1.8,2c0.1,0.2,0.2,0,0.2-0.5s-0.1-1.4-0.6-2.4c-1-2.1-3.2-4-4.9-5.2
					C449.7,190.6,449.4,190.6,449,190.6z"/>
				<path d="M445.4,210.1c0,0-0.8-0.9-1-1.5c-0.1-0.3-0.3-0.5-0.6-0.1c-0.3,0.3-0.5,1.2-0.1,2.4c0.1,0.5,0.2,0.8,0.3,1.1h2
					C445.7,211.3,445.5,210.6,445.4,210.1z"/>
				<path d="M447,152.9c-0.4-0.1-0.7,0.9,0.7,1.6c1.4,0.7,1.1,0.9,1.6,0.9c0.6,0,1.4,0.1,2.5,0.4c1.1,0.3,1.6-0.4,1.8-0.4
					c0.2,0-0.3-0.8-1.5-1.3c-1.2-0.5-2.8-0.7-3.8-1.4C448.3,152.8,447.5,153,447,152.9z"/>
				<path d="M383.2,209.6c-0.3,0.1-0.4,0.4,0,0.7c0.3,0.3,1,0.5,2.1,0.6c2.3,0.3,1.9,0.7,2.7,0.6c0.8-0.1,2.2,0,4,0.2
					c1.8,0.2,2.5-0.8,2.8-0.8c0.2,0,0-0.2-0.5-0.4s-1.2-0.5-2.3-0.7c-2.1-0.5-4.9-0.7-6.9-1.1C385.1,208.8,383.9,209.3,383.2,209.6z
					"/>
			</g>
			<g>
				<path class="st2" d="M344.3,43c0-3.7,0-4.3-0.4-5.1c-0.4-0.7-1.3-0.7-2.3-0.7c-1.8,0-3.6,0.4-4.7,1.4c-1.2,1-2.2,2.8-2.9,4.3
					c-0.1,0.2-0.2,0.3-0.6,0.2s-0.4-0.2-0.4-0.4c0.3-2,0.6-4.8,0.8-6.9c4.5,0.1,8.7,0.2,13.1,0.2c4.2,0,8.6,0,13.2-0.2
					c0.2,2,0.4,4.8,0.7,6.9c0,0.2,0,0.4-0.4,0.4c-0.5,0.1-0.6,0-0.7-0.2c-0.6-1.5-1.6-3.3-2.8-4.3c-1.1-1-2.9-1.4-4.8-1.4
					c-1,0-1.8-0.1-2.3,0.8c-0.6,0.9-0.5,2.7-0.5,5v14.4c0,4,0,4.4,0.4,5.3c0.4,0.8,1.5,0.8,3.1,1c0.3,0,0.4,0.1,0.4,0.5
					s-0.1,0.5-0.4,0.5c-1.7-0.1-3.9-0.1-5.7-0.1c-1.8,0-3.9,0-5.5,0.1c-0.3,0-0.4-0.1-0.4-0.5s0.1-0.5,0.4-0.6
					c1.4-0.2,2.3-0.2,2.7-1c0.5-1,0.4-2.6,0.4-5.3V43H344.3z"/>
				<path class="st2" d="M394.2,50.2c0,8.8-6.4,15.2-15.4,15.2s-15.4-6.4-15.4-15.1s6.4-15.1,15.4-15.1
					C387.8,35.2,394.2,41.4,394.2,50.2z M369,50.2c0,8.4,3.9,13.8,9.9,13.8c5.9,0,9.9-5.4,9.9-13.7c0-8.4-4.1-13.8-9.9-13.8
					C373.1,36.5,369,42,369,50.2z"/>
				<path class="st2" d="M406.4,57.4c0,4,0,4.6,0.4,5.3c0.4,0.8,1.5,0.9,3.2,1c0.3,0,0.3,0.1,0.3,0.5s0,0.5-0.4,0.5
					c-1.9-0.1-4-0.1-5.8-0.1c-1.8,0-4,0-5.7,0.1c-0.2,0-0.3,0-0.3-0.5c0-0.4,0.1-0.5,0.4-0.5c1.5-0.1,2.3-0.2,2.8-1
					c0.4-0.9,0.4-2.6,0.4-5.3V43c0-3.8,0-4.3-0.4-5.2c-0.4-0.8-1.6-0.8-3.2-1c-0.3,0-0.4-0.1-0.4-0.6c0-0.4,0.1-0.5,0.4-0.5
					c1.8,0.1,4.1,0.1,5.9,0.1c1.5,0,4-0.2,6.5-0.2c8.3,0,11.2,3.1,11.2,7.7c0,4.4-2.6,8.3-12.4,8.3c-0.9,0-2,0-2.9-0.2
					C406.4,51.4,406.4,57.4,406.4,57.4z M406.4,50.1c0.8,0.2,1.6,0.2,2.5,0.2c5.7,0,7.7-3,7.7-6.7c0-4.3-2.5-6.5-6.9-6.5
					c-0.9,0-2.3,0.1-2.9,0.8c-0.6,0.8-0.5,2.9-0.5,5.1v7.1H406.4z"/>
			</g>
			<g>
				<g class="st4">
					<path class="st2" d="M292.3,50.3c0.4,0.2,0.9,0.4,1.3,0.7c1.8,1.7,4.2,3.1,5.8,5c0.7,0.6,1.3,1.4,1.9,2.2
						c0.3,0.3,0.9,1,1.5,0.9c-2-2.2-3.9-4.5-5.9-6.8c0.2,0,0.5,0,0.6,0.2c0-0.1,0.1-0.2,0.1-0.2s0.2,0.2,0.5,0.4
						c0-0.5-1.2-1.5-0.7-1.3c1.2,0.7,2.2,1.6,3.1,2.7c0.2,0.1,0.4,0.2,0.6,0.4c-0.1,0-0.3,0-0.4-0.1c0.2,0.2,0.3,0.4,0.5,0.6
						c8.9,6.4,17.4,13.4,25.9,20.6c2.4,1.9,4.6,4.2,6.3,6.7c0.5,0.9,2.2,1.7,2.7,2.6c2.7,3.8,6.4,7,8.2,11.1l1.1,1.2
						c-0.6-0.3-1.1-0.8-1.5-1.3c-0.1,0-0.1-0.1-0.2-0.1c-0.1-0.2-0.1-0.3-0.1-0.4c-2.9-1.6-5.1-7-7.7-10.3c-0.8-0.9-1.6-1.8-2.4-2.7
						c0.1,0.5,0.2,1.2,0.5,1.7c1.6,2,3.6,4.1,4.8,6.3c-1-0.8-2-1.4-2.9-2.4c-0.4-0.5-0.5-1.5-1-1.9c-2.2-2.2-3.2-4.8-5.7-6.5
						c-0.2-0.2-0.7-0.1-0.9-0.3c2.5,2.4,4,5.2,6.4,7.8c0.4,0.4,0.8,0.6,1.2,0.9c0.2,0.5,0.5,0.9,0.7,1.2c3,3.1,1.4,5.2,4.7,7.8
						c-1.4-1.3-2.2-4.5-2.6-5.9c1.4,2,3.8,6.5,5.7,8.6c2.4,2.6,1.6,2.6,3.2,5.3c0.4,0.6,1.2,3.6,1.9,4.8c-1.5-1.8-2.1-3.5-3-4.4
						c-3.9-6.9-10.9-16.8,2.5,5.1c-0.5-0.4-4.7-5.7-5.1-5.7c-0.4,0.1,6.5,8.4,6.2,8.4c-0.7-0.1-4.9-3.5-5.5-4.2
						c-0.1-0.4-0.4-0.5-0.2-0.9c-0.9-0.8-1.4-1.7-2.1-2.8c-1.8-2.9-3-6.3-6-8.4c-0.2-0.2-0.4-1.1-0.6-1.4c-1.6-2-4-3.4-5.5-5.6
						c-1-1.3-2.7-2.1-3.7-3.4c-2.2-3.2-5.3-5.7-8.3-8.4c0.7-0.5-0.3-1.3-0.7-1.6c-2.7-3.1-5.7-5.9-8.5-8.2c-1.2-1.3-2.4-2.6-3.8-3.9
						c-2.7-2.6-5.6-4.4-7.8-7.2c-1.4-1.8-2.9-3.5-4.7-5.2C292,51.3,291.7,50.1,292.3,50.3z M333.4,82.8c-9.1-9.4-20-16.6-30-24.8
						c0.6,0.8,1.2,1.6,1.9,2.4c1,1.1,2.1,2.1,3.2,3c4,2.8,8.3,4.9,11.8,8.7c-1.5-1.4-3.1-2.2-4.7-2.9c1.3,1,2.6,2,3.8,2.9
						c0.2,0.4,0.5,0.7,0.8,0.9c0.2,0.2,0.5,0.4,0.7,0.6c0.8,0.4,1.6,0.8,2.3,1.3C326.8,77.5,329.9,80.2,333.4,82.8z M324.3,77
						c3.6,4,5.7,6.1,2.9,3.1c2.7,3.2,5.1,6.6,7.4,9.9c-1-3-4.3-6.6-7.4-9.9c-1.1-1.3-2.2-2.5-3.4-3.7
						C324.1,76.7,324.3,76.9,324.3,77z"/>
					<path class="st2" d="M306.8,58.4c-1.7-1-3.3-2.1-5-3.1c0.9,0.2,1.7,0.3,2.6,0.6c2.2,1,4,2.9,6,4.3c5.9,3.9,11.2,8.6,16.3,13.9
						c0.3,0.2,0.9,0.8,1.1,1.3C320.9,69.3,314.4,63.5,306.8,58.4z"/>
					<path class="st2" d="M336.3,83.6c0.8,1.1,1.5,2.2,2.4,3.1c-1.1-0.6-2.2-1.7-3-2.7c-1.1-1.4-2.3-2.8-3.4-4.1
						C333.7,81,335.1,82.2,336.3,83.6z"/>
					<path class="st2" d="M327.8,75.5c0.3,0.2,0.5,0.5,0.8,0.7c1.3,1.1,2.5,2.4,3.6,3.7c-1.5-1.2-3-2.3-4.5-3.4
						C328,76.2,328,75.9,327.8,75.5z"/>
				</g>
			</g>
		</g>
	</g>
</g>
<g>
	<defs>
		<rect id="SVGID_3_" x="0" width="200" height="200"/>
	</defs>
	<clipPath id="SVGID_4_">
		<use xlink:href="#SVGID_3_"  style="overflow:visible;"/>
	</clipPath>
	<g class="st5">
		<g>
			<path class="st1" d="M165.9,27.9c-2-9.5-9-18.8-21.9-15c-12.9,3.9-11.1,16.7-7.7,18.2c3.5,1.5,7-1.5,7.9-1.7
				c0.9-0.2,1.4,3.3,1.7,3.8c0.3,0.5,5,16.1,4.7,24.5c-0.2,8.3-6.9,29.7-7.5,30.6c-0.6,0.9-1.5-2-1.5-2s-4.1-2.9-4.9-1.3
				c-0.8,1.6-0.4-0.9-0.4-0.9s-3.7-12.2-8.1-15.4c-1.3-1-2.2-3.1-3.1-3.5c-1.9-0.8-2.7,1.2-3.1,1.6c-0.5,0.5-4.9,13.8-4.9,13.8
				l-0.7,0.3c0,0-28.9,10.2-33.3,12.4c-7.9-5.3-19.6-7.5-23.2-5.7c-0.5,4.1,8,20.7,8.6,21.5c0.6,0.8-10.8-1.8-8.6,0
				c2.2,1.9,5.5,7.2,5.5,7.2s-5.5-1-3.8,1.7c1.7,2.7,4.3,6.4,6,7.5c1.7,1.2,1.2,3.7,3.1,3.3c1.9-0.4,0.4,4,3.6,3.6
				c3.2-0.5-1.8,2.3,2,4.1c3.8,1.8,8.5,2.3,8.5,2.3s-9,11.1-12.3,17.1c-3.2,6-8.6,24-5.8,34.8c2.8,10.8,5,13.8,12.3,15
				c2.6,0.5,4.3,0.6,5.5,0.5c0.7,0,1.2-0.1,1.6-0.2c0.7-0.2,0.8-0.4,0.8-0.4l-0.5,2l-1.4,6.5h70.4c2.7-9.3,5.3-20.3,5.7-29.5
				c0.9-20.8-2.3-35.4-2.3-35.4l-4-22.6l-0.2-1.2c0,0,9.3-28.3,11.5-51.2C168.1,51.6,167.9,37.4,165.9,27.9z"/>
			<path class="st2" d="M114.2,109.6c-2.1-2.5,0.6-7.7,4-10.3c3.4-2.6,6.8-5.4,7.9-3.4c1,2,0.8,8.9-4,11.1
				C117.4,109.2,114.2,109.6,114.2,109.6z"/>
			<path class="st2" d="M102.3,111.4c-1.6,2.1-6.7,5.4-10.2,5.1c-3.5-0.4-7.9-3.6-7.8-4.9s2.1-3.7,8.7-3.5
				C99.5,108.2,102.3,111.4,102.3,111.4z"/>
			<path class="st2" d="M105.1,118.2c-7.3,2.3-6.9,11.3-0.6,14.5c6.3,3.1,3.3,5.1,11.1,4.7s9.7-5.6,10.4-12.8
				c0.7-7.2-0.7-11.6-3.7-12.3c-3-0.7-7.4,2.4-8.7,3.4C112.2,116.6,105.1,118.2,105.1,118.2z"/>
			<path class="st3" d="M118.1,123.4c0.7,1.8,2.9,10.2,0,10.5c-2.9,0.3-8.6-7-8.6-7l3.5-5L118.1,123.4z"/>
			<path class="st2" d="M142.7,214.4H94.1c0-0.1,0-0.2,0.1-0.3c0.2-0.7,0.4-1.3,0.5-2c1.2-4.1,2.5-7.9,2.5-11.4
				c0.1-9.5,1.4-19.3-0.9-19.3c-2.3,0-12-4.5-10.8-14c1.2-9.6,11.3-16.3,12.4-17.1c1.1-0.8,1-4,6.5-8.6c14.5-0.8,23.9-7.5,28.3-9.5
				c4.4-2,7.5-1.6,13.5,6.9C151.2,145.8,148.3,189.6,142.7,214.4z"/>
			<path class="st2" d="M147.7,39.8c8.5,3.7,19.6,0,19.6,0s-0.7-29-18.4-28.2c-17.7,0.8-16,14.4-15.2,17.4c0.8,3,5.7,3.5,8.1,2
				c2.3-1.5,3.1-1.2,3.1-1.2L147.7,39.8z"/>
			<path d="M133.5,82.1c0-1.9-0.4-4.2-1.4-6.1c-1.1-2-2.6-4-3.9-5.8c-1.3-1.8-2.2-3.1-2.8-3.9c-0.5-0.8-0.7-1.2-0.4-1
				c0.3,0.2,0.9,0.1,1.8,0.5c0.9,0.3,2.1,1,3.3,2.4c2.4,2.8,4.1,5.1,5.2,6.7c0.5,0.8,0.5,1.1,0.6,1.8c0.1,0.7,0.3,1.9,0.6,4.5
				c0.2,2.6-0.2,4.1-0.7,4.8c-0.5,0.7-0.9,0.5-1.1-0.2c-0.1-0.7-0.5-1.6-0.8-2.4C133.8,82.7,133.5,82.1,133.5,82.1z"/>
			<path d="M122.8,68.5c-0.9,1.1-1.7,2.5-2.4,4.1c-0.7,1.6-1.2,3.3-1.7,4.9c-0.5,1.6-0.8,2.7-1.1,3.4c-0.3,0.7-0.5,0.9-0.4,0.6
				c0.1-0.5-0.5-1.6,0.1-4.1c0.6-2.5,1.3-4.5,1.6-5.7c0.2-0.6,0.3-0.7,0.6-1.1c0.3-0.4,0.7-1.1,1.7-2.6c1.1-1.5,2-2.1,2.5-2.3
				c0.5-0.2,0.6,0,0.3,0.5c-0.3,0.4-0.6,1-0.8,1.5C122.9,68.1,122.8,68.5,122.8,68.5z"/>
			<path d="M108.1,85.3c-1.3,0.2-2.7,0.5-4.2,0.9c-0.7,0.2-1.5,0.4-2.3,0.6c-0.8,0.2-1.6,0.4-2.3,0.6c-2.8,0.9-5.7,2.6-8.5,3.9
				c-2.8,1.4-4.9,2.1-6.3,2.3c-1.3,0.2-1.8,0.1-1.4-0.1c0.9-0.4,2-2.3,6-4.5c4.1-2.3,7.4-4.2,9.7-5c2.1-0.8,1.3,0,7.6-1.5
				c3.2-0.7,5.2-0.6,6.2-0.3c1,0.3,0.9,0.8,0,1.1c-0.9,0.3-2,0.8-3,1.3C108.8,84.9,108.1,85.3,108.1,85.3z"/>
			<path d="M79.8,93.1c-1.5-1.3-3.4-2.6-5.7-3.4c-2.3-0.9-4.7-1.3-7-1.5c-2.3-0.2-3.9-0.3-4.9-0.4c-1-0.1-1.3-0.2-0.9-0.3
				c0.7,0,2-1,5.7-0.8c3.6,0.2,6.5,1,8.1,1.5c0.8,0.3,1,0.4,1.6,0.8c0.6,0.4,1.5,0.9,3.6,2.4c2,1.6,2.9,2.9,3.2,3.5
				c0.3,0.6,0,0.7-0.5,0.3c-0.5-0.5-1.3-1-2-1.4c-0.3-0.2-0.6-0.4-0.8-0.5C79.9,93.1,79.8,93.1,79.8,93.1z"/>
			<path d="M62.6,91.7c0,1,0.1,2.2,0.4,3.3c0.1,0.6,0.3,1.1,0.5,1.6c0.2,0.5,0.5,1.2,0.8,1.7c1.1,2.4,2.5,4.8,3.6,6.8
				c1.2,2.1,2,3.5,2.5,4.3c0.5,0.8,0.7,1.3,0.4,1.1c-0.3-0.2-1-0.2-2-0.6c-1-0.4-2.2-1.3-3.3-2.9c-2.2-3.3-3.7-6-4.8-7.6
				c-0.5-0.8-0.5-1-0.7-1.8c-0.1-0.8-0.4-2.1-0.8-4.9c-0.3-2.8,0-4.3,0.4-5.1c0.4-0.8,0.9-0.7,1.1,0c0.2,0.8,0.7,1.8,1,2.5
				C62.3,91.1,62.6,91.7,62.6,91.7z"/>
			<path d="M103.6,97.3c-1.2-2.4-3.3-5.4-5.3-7.6c-1-1.1-1.7-1.7-2.1-2.2c-0.5-0.4-0.6-0.6-0.4-0.6c0.2,0.1,0.6,0,1.2,0.1
				c0.6,0.1,1.5,0.5,2.4,1.3c1.8,1.7,2.9,3.2,3.7,4.1c0.8,0.8,0.2,0.6,1.9,3.5c1.6,2.8,1.2,3.8,0.5,3.1
				C104.8,98.3,103.6,97.3,103.6,97.3z"/>
			<path d="M93.9,101.4c-1.4-0.6-3.4-0.8-5.4-0.5c-2,0.3-3.9,1.1-5.5,2.1c-1.6,1-2.6,1.9-3.2,2.4c-0.6,0.5-0.9,0.7-0.8,0.4
				c0.2-0.2,0.2-0.7,0.6-1.5c0.2-0.3,0.4-0.8,0.8-1.2c0.4-0.4,0.8-1,1.5-1.4c0.6-0.5,1.3-0.8,1.9-1.2c0.6-0.3,1.2-0.6,1.8-0.8
				c0.3-0.1,0.6-0.2,0.8-0.3c0.3-0.1,0.5-0.2,0.8-0.2c0.5-0.2,0.9-0.3,1.3-0.3c0.8-0.2,1-0.1,1.6-0.1c0.3,0,0.7,0.1,1.3,0.2
				c0.6,0.1,1.4,0.2,2.5,0.5c2.2,0.7,3.2,1.9,3.4,2.5c0.3,0.6,0,0.7-0.5,0.4c-0.5-0.3-1.3-0.6-1.9-0.7c-0.3,0-0.6-0.1-0.8-0.1
				C94.1,101.3,93.9,101.4,93.9,101.4z"/>
			<path d="M111.1,94.8c0.8-1.2,1.8-2.5,3.3-3.6c1.4-1.1,3.3-1.7,4.9-1.8c1.7-0.1,2.8,0.2,3.4,0.5c0.6,0.3,0.8,0.5,0.5,0.5
				c-0.5,0-1.5,0.5-3.6,0.7c-2.2,0.3-3.6,1.3-4.3,2c-0.3,0.3-0.4,0.4-0.8,0.6c-0.3,0.2-0.9,0.5-1.7,1.8c-0.8,1.2-1.3,2-1.7,2.3
				c-0.4,0.3-0.6,0.2-0.6-0.3c0.1-0.5,0.1-1.1,0.2-1.7C111,95.2,111.1,94.8,111.1,94.8z"/>
			<path d="M120.1,79.8c0.7-1.8,1.2-4.4,2.1-6.4c1-2,2.1-2.5,1.9-2.2c-0.1,0.3,0.3,1.2-0.3,2.7c-0.6,1.5-0.8,2.8-0.9,3.6
				c0,0.8-0.3,0.3-1,2.5c-0.6,2.2-1.5,2.4-1.6,1.7C120.4,81,120.1,79.8,120.1,79.8z"/>
			<path d="M76.8,96.7c-2.1-1.6-5.1-3.3-7.7-4.3c-1.3-0.5-2.3-1-2.8-1.3c-0.6-0.3-0.7-0.5-0.5-0.5c0.4,0.1,1.5-0.6,3.7,0.1
				c2.2,0.7,3.9,1.6,4.9,1.9c1,0.4,0.5,0.5,3.1,2.2c2.6,1.7,2.7,2.8,1.8,2.5C78.4,97.1,76.8,96.7,76.8,96.7z"/>
			<path d="M130.3,95.3c1.7,0,2.6-2.5-0.5-2.6c-1.6,0.1-3,0.6-4.4,1.3c-1.4,0.8-2.9,1.8-4.7,3.1c-3.7,2.5-6.5,6.2-7.8,8.6
				c-0.6,1.2-0.1,2,0.7,2c0.8-0.1,1.7-1,2.5-3.3c0.5-1.2,1-2.1,1.9-2.9c0.8-0.9,1.9-1.8,3.6-3.2c1.4-1.1,3-1.9,4.6-2.3
				C127.6,95.5,129.1,95.4,130.3,95.3z"/>
			<path d="M114.4,107.2c0,0.9,0.1,1.9,0.4,2.8c0.2,0.9,0.7,1.8,1,2.7c0.7,1.8,0.5,2.9,0.3,2.6c-0.1-0.3-1.1-0.4-1.8-1.8
				c-0.7-1.3-1.3-2.6-1.6-3.3c-0.3-0.7,0.1-0.5-0.2-2.6c-0.2-2.1,0.6-2.6,0.9-2C113.7,106.2,114.4,107.2,114.4,107.2z"/>
			<path d="M80.2,110.7c-1.3,0.7-1.7,1.8-1.4,2.3c0.3,0.6,1.3,0.6,2.9-0.2c1.7-0.8,3.2-1.7,5.1-2.5c1.9-0.8,4.1-1.6,7.1-1.6
				c1.5,0,2.9,0.2,4.3,0.7c1.4,0.4,2.6,1,3.7,1.8c2,1.5,2.9,3.7,3.5,5.3c0.5,1.6,1.5,2.1,2.1,1.4c0.2-0.3,0.4-1,0.2-2
				c-0.2-1-0.8-2.4-2.1-3.8c-1.5-1.5-2.8-2.4-4.4-3.2c-0.8-0.4-1.7-0.8-2.9-1.1c-1.2-0.3-2.5-0.5-4.2-0.5
				C88.7,107.3,83.5,108.9,80.2,110.7z"/>
			<path d="M86.8,112.7c1.2,1.3,3.2,2.2,5.4,2.4c2.2,0.2,4.5-0.1,6.3-1.1c1.8-0.9,2.8-2,3.4-2.6c0.6-0.7,0.9-0.8,0.8-0.6
				c-0.2,0.3-0.2,0.8-0.5,1.7c-0.2,0.4-0.4,0.9-0.9,1.4c-0.4,0.5-1,1.1-1.8,1.5c-1.6,0.9-3.1,1.4-4.5,1.6c-1.4,0.2-2.5,0.2-3.4,0.2
				c-0.9,0-1.1-0.2-1.7-0.4c-0.6-0.3-1.7-0.6-3.8-2.2c-1-0.8-1.6-1.7-2-2.4c-0.1-0.2-0.2-0.3-0.2-0.5c-0.1-0.2-0.1-0.3-0.1-0.5
				c-0.1-0.3-0.1-0.5-0.1-0.7c0-0.7,0.3-0.7,0.6-0.1c0.2,0.3,0.4,0.6,0.6,0.9c0.3,0.3,0.6,0.5,0.8,0.8
				C86.4,112.5,86.8,112.7,86.8,112.7z"/>
			<path d="M127.7,100.1c-0.1,0.9-0.1,1.9-0.4,3c-0.3,1.1-0.9,2.2-1.7,3.1c-1.7,1.8-4,2.6-5.9,3.2c-2,0.5-3.4,0.6-4.2,0.7
				c-0.8,0.1-1.1,0-0.9-0.1c0.5-0.2,1.5-1.3,4.3-2.1c1.4-0.4,2.6-1,3.5-1.5c0.9-0.6,1.5-1.2,1.8-1.7c0.3-0.5,0.4-0.6,0.7-1
				c0.2-0.4,0.8-1,0.9-3c0-1.9,0-3.2,0.2-3.8c0.2-0.6,0.5-0.5,0.6,0c0.2,0.6,0.5,1.4,0.7,2C127.5,99.5,127.7,100.1,127.7,100.1z"/>
			<path d="M94.5,114.7c1.5-0.3,2.4-1.8,2.4-3.1c-0.1-1.1-0.8-2-2.4-2C90.1,109.6,93,114.5,94.5,114.7z"/>
			<path d="M119.5,106.3c1.8,0.8,2.6-1.4,2.4-3.3c-0.1-1-0.5-1.9-1.3-2.2c-3.5-1.4-3,5.7,0.4,4.7"/>
			<path d="M114.4,114.1c-1.5,0.8-3.5,0.7-5,1.8c-2.5,1.8,0.1,3.9,2.3,4.8c2.2,0.9,3.1-0.7,3.7-3
				C115.8,116.1,115.4,112.9,114.4,114.1z"/>
			<path d="M124.5,116.3c0.2-1.4-0.4-2.3-0.9-2.4c-0.6-0.1-1.1,0.7-1.4,2.5c-0.1,0.9-0.3,1.8-0.5,2.6c-0.2,0.8-0.5,1.5-1.1,2
				c-0.6,0.4-1.7,0.7-2.9,0.7c-0.6,0-1.2,0-1.9-0.1c-0.3,0-0.7-0.1-1-0.2c-0.3-0.1-0.6-0.2-1.2-0.4c-0.2-0.1-0.4-0.2-0.5-0.2
				c-0.8,0.2-1.1,1.6-1.3,2.1c-0.2,0.7-0.6,1.3-1,1.8c-0.4,0.5-0.9,0.9-1.5,1.3c-0.6,0.4-1.1,0.6-1.7,0.7c-1.2,0.2-2.4,0-3.4-0.3
				c-1-0.3-1.9-0.7-2.6-1.1c-1.4-0.8-2.4-0.8-2.4,0c0,0.4,0.4,1,1.2,1.6c0.8,0.6,2.2,1.2,4.2,1.3c1,0,1.9,0,2.8-0.2
				c0.8-0.1,1.8-0.5,2.5-1c0.8-0.5,1.6-1.1,2.3-2.2c0.3-0.5,0.6-1.1,0.8-1.8c0.1-0.2,0.1-0.4,0.2-0.7c0-0.1,0.1-0.3,0.2-0.2l0.1,0
				l0.7,0.2c0.3,0.1,0.7,0.2,1,0.2c0.7,0.1,1.3,0.2,2,0.3c0.7,0,1.3,0,2,0c0.6-0.1,1.4-0.2,2.1-0.5c1.4-0.8,2.1-2.1,2.4-3.2
				C124.2,118.2,124.4,117.2,124.5,116.3z"/>
			<path d="M100.4,123.4c0.8,1,1.4,2.2,1.5,3.2c0,0.5-0.1,0.8-0.2,1.1c-0.1,0.2-0.3,0.4-0.3,0.3c0-0.1-0.9-0.1-1.1-0.9
				c-0.2-0.7-0.5-1.2-0.8-1.4c-0.1-0.1-0.1-0.1-0.1-0.3c0-0.1,0-0.3-0.2-0.6c-0.2-0.2-0.2-0.5-0.3-0.7c0-0.3,0-0.6,0.2-0.6
				c0.2-0.1,0.5-0.1,0.8-0.1C100.1,123.4,100.4,123.4,100.4,123.4z"/>
			<path d="M134.4,89.8c1.3-1.4,2.1-4,2.7-6.1c0.3-1,0.5-1.7,0.7-2.2c0.2-0.5,0.3-0.7,0.4-0.5c0,0.2,0.3,0.4,0.5,0.8
				c0.2,0.4,0.4,1.1,0.3,2.1c-0.3,1.8-0.7,3.2-0.9,4.1c-0.2,0.9-0.3,0.4-1.7,2.6c-0.7,1.1-1.5,1.5-1.9,1.5c-0.4,0.1-0.6-0.2-0.4-0.5
				c0.2-0.3,0.3-0.8,0.4-1.2C134.3,90.1,134.4,89.8,134.4,89.8z"/>
			<path d="M134.9,97.4c1.1-0.9,2.2-2.4,3.2-4.1c1-1.7,1.8-3.5,2.6-5.1c0.8-1.6,1.3-2.7,1.7-3.4c0.3-0.7,0.4-0.9,0.5-0.6
				c0,0.5,0.7,1.9-0.4,4.5c-1.1,2.6-2.1,4.7-2.6,5.9c-0.3,0.6-0.4,0.8-0.8,1.2c-0.4,0.4-0.9,1.1-2.3,2.6c-0.7,0.8-1.4,1.2-2.1,1.5
				c-0.7,0.3-1.2,0.2-1.5,0.1c-0.6-0.3-0.4-0.6,0-0.7c0.5-0.2,1-0.7,1.3-1.1C134.7,97.8,134.9,97.4,134.9,97.4z"/>
			<path d="M138.4,100.4c0.9-0.3,1.8-1.4,2.4-2.7c0.6-1.3,1.1-2.8,1.7-4.2c0.6-1.4,1.2-2.3,1.7-2.8c0.5-0.5,0.8-0.5,0.7-0.3
				c-0.3,0.4,0.1,1.5-0.7,3.5c-0.7,2.2-1.3,3.9-1.6,4.9c-0.2,0.5-0.3,0.7-0.6,1c-0.4,0.3-0.7,0.9-2.2,2c-0.4,0.3-0.8,0.4-1.1,0.5
				c-0.4,0.1-0.7,0.1-1,0.1c-0.6,0-0.9-0.2-1.2-0.3c-0.4-0.3-0.3-0.6,0.1-0.7c0.2-0.1,0.5-0.1,0.7-0.2c0.2-0.1,0.4-0.3,0.6-0.4
				c0.2-0.1,0.3-0.3,0.4-0.4C138.3,100.5,138.4,100.4,138.4,100.4z"/>
			<path d="M137.7,113.8c2.8-2.6,5.8-7.2,7.7-11.3c2-4,2.3-5.8,2.3-5.2c-0.1,0.6,0.1,2.2-1.4,5.3c-1.5,3.1-2.9,5.5-3.7,6.9
				c-0.4,0.7-0.6,0.9-1,1.4c-0.4,0.5-1.1,1.3-2.7,3.1c-1.7,1.7-3.1,2.5-3.8,2.6c-0.7,0.2-0.6,0,0-0.4c0.1-0.1,0.3-0.2,0.5-0.3
				c0.1-0.1,0.3-0.2,0.5-0.4c0.3-0.2,0.6-0.5,0.8-0.8C137.4,114.3,137.7,113.8,137.7,113.8z"/>
			<path d="M133.9,120.9c0.9,0,1.9-0.4,2.8-0.9c1-0.6,1.8-1.3,2.6-2c1.6-1.4,2.6-1.8,2.5-1.5c-0.2,0.3,0.1,1.4-1.1,2.7
				c-1.3,1.3-2.4,2.2-3.1,2.8c-0.4,0.3-0.5,0.3-0.8,0.4c-0.4,0-0.9,0.2-2.2,0.5c-1.3,0.2-2.1-0.1-2.4-0.4c-0.3-0.3-0.2-0.6,0.1-0.7
				c0.3-0.1,0.8-0.3,1.1-0.5C133.6,121.1,133.9,120.9,133.9,120.9z"/>
			<path d="M68.9,112.3c-2.2,0.2-4.9-0.3-7-1.2c-2-1-2.5-2-2.2-1.9c0.3,0.1,1.2-0.3,2.7,0.3c1.5,0.5,2.8,0.7,3.5,0.6
				c0.4,0,0.5,0,0.7,0.1c0.3,0.1,0.7,0.3,1.7,0.2c0.9-0.1,1.4-0.2,1.8-0.2c0.4,0,0.6,0.2,0.4,0.5C70.1,111.4,68.9,112.3,68.9,112.3z
				"/>
			<path d="M67.2,120.6c-1.8-0.6-4.4-1.3-6.2-2.8c-0.9-0.7-1.3-1.6-1.3-2.3c0.1-0.7,0.3-0.7,0.3-0.6c0,0.1,0.1,0.2,0.1,0.3
				c0.1,0.1,0.3,0.2,0.4,0.3c0.4,0.2,0.8,0.4,1.4,0.8c1.2,0.9,2.4,1.2,3.1,1.3c0.4,0.1,0.4,0.1,0.7,0.3c0.2,0.2,0.6,0.4,1.6,0.7
				c1,0.3,1.5,0.5,1.8,0.8c0.3,0.3,0.3,0.5-0.1,0.6C68.4,120.3,67.2,120.6,67.2,120.6z"/>
			<path d="M79.1,127.9c-3.9,0.2-9.6-0.3-13.8-2.5c-2.1-1.1-3.3-2.4-3.8-3.3c-0.4-0.9-0.4-1.2-0.2-1c0.2,0.3,0.6,0.6,1.3,1
				c0.7,0.4,1.7,0.9,3.2,1.6c2.9,1.4,5.6,1.7,7.1,1.8c0.8,0,1,0.1,1.5,0.2c0.3,0.1,0.7,0.2,1.3,0.2c0.3,0,0.7,0.1,1.1,0.1
				c0.4,0,0.9,0,1.5,0c2.3-0.1,3.6-0.3,4.3-0.2c0.7,0.1,0.7,0.4,0,0.6c-0.6,0.3-1.5,0.6-2.2,0.9C79.7,127.7,79.1,127.9,79.1,127.9z"
				/>
			<path d="M85.8,132.2c-2,0.4-4.4,0.9-7,0.9c-2.6,0-5.2-0.5-7.4-1.5c-2.2-0.9-3.5-1.9-4.3-2.6c-0.7-0.6-0.9-0.9-0.6-0.8
				c0.3,0.2,0.8,0.2,1.7,0.5c0.9,0.2,2,0.6,3.6,1.2c3.2,1.2,5.9,1.2,7.4,1.1c0.8-0.1,1,0,1.6,0c0.6,0,1.6,0.1,3.9-0.5
				c1.1-0.3,2-0.5,2.8-0.7c0.7-0.2,1.2-0.3,1.6-0.3c0.7,0,0.7,0.3,0.1,0.6c-0.6,0.3-1.4,0.9-2.1,1.2
				C86.4,131.9,85.8,132.2,85.8,132.2z"/>
			<path d="M94.2,137c-1.8,0.8-4.1,1.5-6.5,1.8c-2.4,0.3-5,0.3-7.2-0.2c-2.2-0.5-3.7-1.4-4.4-2c-0.7-0.7-0.8-1-0.6-0.8
				c0.6,0.3,2,0.4,5.1,1c3.2,0.6,5.8,0.2,7.2-0.2c0.7-0.2,0.9-0.2,1.5-0.2c0.6-0.1,1.5-0.1,3.6-1c2-0.9,3.2-1.5,3.8-1.7
				c0.7-0.2,0.8,0.1,0.3,0.6c-0.2,0.2-0.5,0.5-0.8,0.8c-0.3,0.3-0.6,0.6-0.9,0.8C94.7,136.7,94.2,137,94.2,137z"/>
			<path d="M135.9,128.4c0.4-0.5,0.6-1.1,0.8-1.6c0.2-0.5,0.3-1,0.2-1.4c0-0.9-0.3-1.4-0.7-1.6c-0.4-0.2-0.9,0-1.5,0.5
				c-0.3,0.3-0.6,0.6-0.9,1.1c-0.2,0.2-0.3,0.5-0.5,0.7c-0.2,0.3-0.4,0.6-0.7,0.9c-1,1.3-1.8,2.4-2.8,3.4c-0.9,1.1-1.8,2-2.9,3
				c-2.1,2-4.6,4-8.7,5.7c-8.3,3.2-17.1,3-22.6,1c-0.7-0.3-1.2-0.4-1.8-0.5c-0.5-0.1-0.9-0.2-1.3-0.1c-0.7,0.1-1.1,0.4-1,1.1
				c0.2,0.6,0.9,1.6,2.6,2.4c1.7,0.8,4.2,1.4,7.5,1.2c3.5-0.3,5.4-0.6,7.7-0.9c1.1-0.2,2.4-0.4,3.9-0.7c1.5-0.4,3.3-0.8,5.6-1.8
				c3.5-1.6,6.8-3.2,9.7-5.2C131.5,133.6,134.1,131.3,135.9,128.4z"/>
			<path d="M126.1,111.5c0.5-0.4,2.2-1.8,4.4-3.7c2.2-2,4.9-4.5,7.7-7.1c5.5-5.2,11.9-9.6,13.4-10.9c2.4-1.8,4.3-3.9,5.9-5.6
				c1.6-1.7,3.1-2.7,3.7-3c1.2-0.7,1.9-0.8,2-0.4c0.1,0.4-0.1,0.5-1.3,1.2c-0.3,0.2-1,0.5-1.8,1.1c-0.8,0.6-1.8,1.4-2.7,2.3
				c-0.9,0.9-1.9,1.8-2.8,2.6c-0.9,0.8-1.7,1.4-2.2,1.9c-2.7,2.3-5.7,4.5-8.5,6.8c-2.8,2.3-5.4,4.8-7.8,7c-4.6,4.5-8.4,7.8-9.3,8.6
				c-1.8,1.5-2,1.3-2.1,1C124.5,113,125.2,112.1,126.1,111.5z"/>
			<path d="M129.8,114.2c0.5-0.2,2.1-1.2,4.2-2.8c0.5-0.4,1.1-0.8,1.7-1.3c0.6-0.4,1.2-0.8,1.9-1.3c1.3-0.9,2.7-1.8,4.1-2.7
				c2.7-1.9,5.6-3.6,8-5c2.4-1.4,4.2-2.5,4.9-2.9c1.1-0.7,2.3-1.3,3.2-2c1-0.7,1.9-1.4,2.7-2c1.6-1.2,3-2,3.6-2.2
				c1.2-0.4,1.8-0.4,1.9,0c0.1,0.4-0.1,0.5-1.3,0.9c-0.6,0.2-2.5,1.1-4.4,2.4c-0.9,0.6-1.9,1.3-2.8,1.9c-0.9,0.6-1.7,1-2.2,1.3
				c-2.6,1.6-5.4,3.3-8.2,5c-2.7,1.7-5.3,3.5-7.7,5.2c-1.2,0.8-2.3,1.6-3.3,2.3c-1,0.7-1.8,1.4-2.6,2.1c-1.5,1.2-2.7,2-3.2,2.3
				c-1,0.5-1.6,0.6-1.9,0.5c-0.3-0.1-0.3-0.2-0.3-0.4c0-0.2,0.2-0.3,0.5-0.5C128.9,114.6,129.3,114.3,129.8,114.2z"/>
			<path d="M132.9,115.9c0.6-0.2,2.2-1.2,4.4-2.6c1.1-0.7,2.5-1.4,3.9-2.1c1.4-0.7,2.9-1.5,4.4-2.2c3.1-1.5,6.3-2.6,8.9-3.6
				c2.6-1,4.6-1.8,5.5-2.1c2.5-1,5.1-1.5,7-2.2c1.9-0.6,3.1-1.5,3.6-1.8c0.9-0.6,1.3-1,1.5-0.7c0.1,0.1,0.2,0.3,0.1,0.5
				c-0.1,0.2-0.4,0.5-0.9,0.9c-0.3,0.2-0.9,0.6-1.7,1c-0.9,0.4-1.9,0.7-3.1,1c-2.3,0.6-4.6,1.1-5.7,1.6c-2.9,1.2-6,2.4-9.1,3.6
				c-3.1,1.1-5.9,2.5-8.5,3.9c-1.3,0.7-2.5,1.3-3.6,1.9c-1.1,0.6-2,1.2-2.8,1.7c-1.6,1.1-2.8,1.8-3.3,2.1c-1,0.5-1.5,0.6-1.8,0.6
				c-0.3,0-0.3-0.2-0.4-0.3C131.2,116.8,132,116.3,132.9,115.9z"/>
			<path d="M69.4,112.2c0.1,0.5,0.6,2.3,1.7,4.6c0.5,1.1,1.1,2.4,1.8,3.8c0.7,1.4,1.5,2.7,2.2,4.2c0.7,1.5,1,3.1,1.7,4.4
				c0.7,1.3,1.7,2.4,2.4,3.5c1.6,2.1,2.9,3.7,3.4,4.3c1.6,1.9,3.5,3.5,5,4.5c1.6,1,2.8,1.3,3.1,1.4c0.8,0.2,0.9,0.1,1.2,0.9
				c0.1,0.4,0.1,0.6-0.1,0.8c-0.2,0.2-0.7,0.3-1.4,0.2c-0.4-0.1-1.1-0.3-1.9-0.8c-0.8-0.5-1.7-1.1-2.5-1.9c-1.7-1.5-3.2-3.3-4-4.1
				c-2.1-2.2-4-4.7-5.9-7.2c-0.5-0.7-0.9-1.4-1.2-2.1c-0.3-0.8-0.6-1.5-0.8-2.2c-0.5-1.4-1.2-2.5-1.9-3.7c-2.7-4.8-4.4-8.8-4.8-9.8
				c-0.4-1-0.4-1.6-0.2-1.9c0.2-0.3,0.4-0.3,0.7-0.4C68.6,110.6,69.3,111.3,69.4,112.2z"/>
			<path d="M88.5,127c-1.8,0-3.9,0-6,0.2c-2.1,0.2-4.4,0.4-6.6,0.8c-4.5,0.7-9.2,1.9-13.4,2.9c-8.4,2.2-11.8,2.8-10.6,2.4
				c1.3-0.3,3.7-1.3,10-3c6.3-1.7,11.4-2.8,14.4-3.3c1.5-0.3,1.9-0.3,3.1-0.4c1.2-0.1,3.2-0.3,7.7-0.4c4.6-0.1,7.2-0.2,8.5-0.3
				c1.2-0.1,1.1,0.1-0.2,0.3C92.9,126.8,88.5,127,88.5,127z"/>
			<path d="M91.4,131.7c-3.2,0.6-7,1.6-10.9,2.9c-3.9,1.3-7.9,2.7-11.5,4c-7.3,2.6-10.3,3.3-9.2,2.9c1.1-0.4,3.2-1.4,8.6-3.4
				c5.4-2,9.8-3.6,12.3-4.4c1.3-0.4,1.7-0.5,2.7-0.8c1-0.2,2.7-0.8,6.7-1.6c4-0.9,6.4-1.1,7.5-1.1c1.1,0,0.9,0.1-0.2,0.3
				c-1.1,0.2-2.6,0.5-3.9,0.8C92.3,131.4,91.4,131.7,91.4,131.7z"/>
			<path d="M120,127c0.2,1,0.4,2.1,0.6,3.3c0.1,0.6,0.1,1.3,0.1,2c-0.1,0.7-0.2,1.6-0.9,2.4c-0.3,0.4-0.8,0.7-1.3,0.9
				c-0.2,0.1-0.5,0.1-0.7,0.2c-0.2,0-0.5,0.1-0.7,0c-0.9,0-1.7-0.4-2.3-0.7c-1.3-0.8-2.2-1.7-3-2.7c-1.5-1.9-2.1-3.6-2.3-4.6
				c-0.2-1,0-1.4,0.1-1c0.3,0.7,1.5,1.6,3.6,4.1c1.1,1.3,2.3,2.2,3.3,2.5c0.5,0.1,0.9,0.1,1.1,0c0.3-0.1,0.3-0.3,0.3-0.4
				c0.1-0.3,0.1-0.5,0.3-1c0.1-0.5,0.2-1.4-0.3-3.7c-0.6-2.3-0.7-3.8-0.5-4.5c0.1-0.4,0.3-0.5,0.4-0.5c0.1,0,0.3,0.2,0.4,0.5
				c0.2,0.6,0.7,1.4,1.1,2.1C119.7,126.4,120,127,120,127z"/>
			<path d="M74.1,157c-0.5,1.2-1,2.4-1.5,3.7c-0.6,1.3-1.1,2.5-1.6,3.9c-1,2.7-1.8,5.6-2.3,8.6c-0.3,1.5-0.5,3-0.6,4.6
				c-0.1,1.5-0.2,3.1-0.2,4.7c-0.1,3.1-0.1,6.2,0.2,8.9c0.1,0.7,0.2,1.3,0.3,2c0.1,0.6,0.3,1.3,0.4,1.9c0.3,1.2,0.6,2.3,0.9,3.2
				c0.6,1.9,1.2,3.4,1.8,4.3c0.6,0.9,1.1,1.2,1.4,1.3c0.3,0.1,0.3,0.1-0.1,0.2c-0.8,0.1-2.2-0.7-3.5-2.6c-0.7-0.9-1.3-2.1-2-3.7
				c-0.6-1.5-1.3-3.3-1.7-5.6c-0.7-4.6-0.5-8.6-0.5-12.1c0-3.4,0.4-6.4,0.7-8.5c0.3-2.1,0.6-2.7,1.1-4.3c0.3-0.8,0.7-1.8,1.2-3.4
				c0.3-0.8,0.7-1.7,1.1-2.8c0.5-1.1,1-2.2,1.5-3.7c1.1-2.9,2.1-5.3,3.3-7c1.1-1.7,2.3-2.7,3.2-3c0.4-0.2,0.8-0.2,1-0.2
				c0.2,0,0.3,0.1,0.3,0.2c0,0.2-0.4,0.5-1,1c-1.2,1.1-2.1,3.3-2.7,5.1C74.5,155.5,74.1,157,74.1,157z"/>
			<path d="M85.2,203.9c1.6-0.6,3.1-1.8,4.5-3.4c1.3-1.6,2.3-3.6,3-5.8c0.2-0.5,0.3-1.1,0.4-1.6l0.4-1.8c0.3-1.2,0.5-2.4,0.8-3.6
				c0.5-2.4,1-4.7,1.2-6.9c0.2-2,0.1-4,0.2-5.7c0.1-1.7,0.3-3.1,0.7-4.1c0.4-1,0.9-1.6,1.2-1.8c0.3-0.2,0.3-0.1,0.1,0.2
				c-0.4,0.6-0.4,1.8-0.1,3.5c0.2,0.9,0.3,1.9,0.6,3.1c0.2,1.2,0.5,2.7,0.4,4.6c-0.2,3.6-0.9,6.8-1.4,9.4c-0.2,1.3-0.4,2.5-0.6,3.6
				c-0.2,1.1-0.4,2.2-0.6,3c-0.5,1.7-0.8,2.2-1.6,3.3c-0.4,0.6-0.9,1.3-1.9,2.4c-0.9,1-2.2,2.5-4.5,3.9c-2.3,1.4-4.7,1.8-6.3,1.7
				c-0.8,0-1.5-0.2-2.1-0.4c-0.6-0.1-1-0.4-1.3-0.6c-1.2-0.8-0.8-1.2,0.5-1c1.4,0.1,3.1-0.1,4.4-0.7c0.6-0.3,1.1-0.6,1.5-0.8
				C85,204.1,85.2,203.9,85.2,203.9z"/>
			<path d="M82.6,176.5c0.5-1.9,0.6-3.9,0.8-6.3c0.2-2.3,0.4-4.9,1.2-7.4c0.8-2.5,2-5,3.6-7.1c0.8-1.1,1.7-2,2.7-2.9
				c0.5-0.4,1-0.8,1.6-1.2c0.3-0.2,0.6-0.4,1-0.5c0.3-0.1,0.7-0.3,1-0.4c2.6-0.8,4.9-0.5,6.7,0.2c1.8,0.7,2.9,2.2,3.1,3.3
				c0.2,0.5,0.1,1,0.1,1.4c-0.1,0.4-0.1,0.6-0.2,0.8c-0.1,0.3-0.2,0.3-0.2-0.1c0-0.2,0-0.4-0.1-0.6c0-0.2-0.2-0.5-0.3-0.7
				c-0.1-0.3-0.3-0.5-0.5-0.8c-0.1-0.1-0.3-0.2-0.4-0.4c-0.1-0.1-0.3-0.2-0.5-0.3c-0.7-0.4-1.6-0.8-2.7-0.9c-1.1-0.1-2.5-0.1-4,0.4
				c-0.4,0.1-0.7,0.3-1.1,0.4c-0.3,0.2-0.6,0.3-0.9,0.6c-0.6,0.5-1.2,1-1.7,1.5c-1,1-1.8,2.2-2.5,3.2c-1.3,2.2-1.9,4.2-2.2,5.7
				c-0.3,1.5-0.4,1.9-0.7,3.1c-0.1,0.6-0.3,1.4-0.5,2.7c-0.2,1.3-0.3,3-0.7,5.5c-0.4,2.4-0.9,4.4-1.5,5.9c-0.6,1.5-1.2,2.5-1.8,3
				c-0.6,0.5-0.9,0.5-1,0.4c-0.1-0.2,0.1-0.5,0.4-1.1c0.6-1.2,0.8-3,0.9-4.5C82.7,177.7,82.6,176.5,82.6,176.5z"/>
			<path d="M97.7,155.8c0.6-0.1,1.3-0.2,2-0.1c0.7,0.1,1.4,0.3,2,0.6c1.2,0.6,2.3,1.5,2.9,2.5c0.6,1,0.7,1.9,0.6,2.5
				c-0.1,0.5-0.3,0.7-0.3,0.6c-0.1-0.3-1.2-0.5-2-1.6c-0.8-1.1-1.9-1.6-2.5-1.6c-0.3,0-0.3-0.1-0.5-0.2c-0.2-0.1-0.5-0.4-1.2-0.3
				c-0.7,0.1-1.2,0.3-1.7,0.2c-0.4-0.1-0.7-0.3-0.5-0.6c0.1-0.2,0.2-0.4,0.3-0.6c0.1-0.2,0.3-0.4,0.4-0.6c0.1-0.2,0.3-0.4,0.4-0.5
				C97.6,155.8,97.7,155.8,97.7,155.8z"/>
			<path d="M102,161.7c0.8,0.2,1.8,0.6,2.5,1.5c0.8,0.9,1,2,1.1,3c0.1,2.1-1,4.2-2.4,5.4c-1.4,1.2-2.8,1.4-3.5,1.4
				c-0.8,0-1-0.2-0.8-0.3c0.2-0.1,0.5-0.4,1-0.8c0.4-0.4,1-1,1.8-1.7c0.8-0.7,1.3-1.6,1.5-2.3c0.2-0.8,0.1-1.4,0-1.8
				c-0.1-0.4-0.1-0.5-0.1-0.8c0-0.1,0-0.3-0.1-0.6c-0.1-0.2-0.4-0.5-1-0.7c-1.3-0.4-2.3-0.5-2.8-0.9c-0.5-0.3-0.4-0.6,0.1-0.8
				c0.5-0.1,1.2-0.3,1.7-0.5C101.5,161.8,102,161.7,102,161.7z"/>
			<path d="M143.2,84.7c0.1-0.4,0.3-1.3,0.7-2.4c0.4-1.2,0.9-2.6,1.5-4.2c0.6-1.6,1.2-3.4,1.7-5.4c0.5-2,1-4.1,1.3-6.2
				c0.7-4.3,1.1-8.7,1-12.2c-0.1-3.6-0.6-6.3-0.8-7.4c-0.6-3.4-1.7-6.5-2.6-9c-1-2.5-1.8-4.3-2-5.1c-0.4-1.5-0.4-2.3,0.7-2.5
				c1.1-0.3,1.6-0.1,2,1.5c0.2,0.8,0.9,3.6,1.6,6.5c0.7,2.9,1.4,6.1,1.7,7.6c0.9,4,1.4,8.4,1.2,12.8c-0.2,4.3-0.7,8.5-1.5,12.3
				c-0.4,1.9-0.7,3.6-1.2,5.3c-0.5,1.6-0.9,3.1-1.3,4.2c-0.8,2.4-1,3.9-1,4.5c-0.1,1.2-0.2,1.7-0.5,2c-0.3,0.3-0.8,0.3-1.2,0.4
				c-0.4,0-0.9-0.3-1.2-0.8C143.1,86.1,143,85.4,143.2,84.7z"/>
			<path d="M135.6,17.4c-0.8,1-1.4,2.1-1.9,3.2c-0.3,0.8-0.8,2.1-0.9,3.5c-0.2,1.4-0.3,3.1,0.2,4.8c0.2,0.8,0.6,1.7,1.2,2.4
				c0.6,0.8,1.4,1.3,2.2,1.6c0.4,0.1,0.8,0.2,1.2,0.3c0.4,0,0.7,0,1,0c0.6,0,1-0.1,1.3-0.1c1.5-0.1,3.1-1.1,3.8-2.1
				c0.7-1.1,0.7-2.2-0.5-3.1c-0.9-0.7-1.9-0.5-2.7-0.1c-0.8,0.5-1.4,0.9-1.8,1.5c-0.1,0.1-0.6,0.5-1.2,0.5l-0.2,0l-0.2,0
				c-0.2,0-0.3-0.1-0.5-0.2c-0.2-0.1-0.3-0.3-0.5-0.4c-0.1-0.2-0.3-0.4-0.4-0.7c-0.5-1-0.7-2.5-0.8-3.7c0-1.3,0.1-2.4,0.4-3.1
				c0.4-1.5,1.2-2.8,1.9-3.5c0.3-0.3,1.2-1.3,2.8-2.5c1.6-1.2,4.1-2.4,6.9-2.9c1.4-0.3,2.9-0.3,4.4-0.1c0.7,0.1,1.5,0.2,2.2,0.5
				c0.7,0.2,1.4,0.5,2.1,0.8c2.7,1.2,4.9,3.3,6.3,5.2c0.7,0.9,1.2,1.9,1.6,2.7c0.4,0.9,0.7,1.6,0.9,2.3c0.2,0.7,0.4,1.3,0.5,1.8
				c0.1,0.5,0.2,1,0.2,1.4c0.2,1.6,0.1,2.3,0.2,2.9c-0.2,2.4,3.8,4.1,3.1-0.4c-0.1-0.5-0.3-1-0.4-1.5c-0.1-0.3-0.1-0.6-0.2-0.9
				c-0.1-0.3-0.2-0.7-0.3-1.1c-0.1-0.4-0.2-0.9-0.4-1.4c-0.2-0.5-0.4-1.2-0.7-1.9c-0.6-1.4-1.4-3.1-2.9-5.1c-1.6-2.1-4-4.3-7.1-5.7
				c-0.8-0.3-1.6-0.7-2.4-0.9c-0.8-0.3-1.7-0.4-2.5-0.5c-0.4-0.1-0.8-0.1-1.3-0.1c-0.4,0-0.8-0.1-1.3,0c-0.8,0.1-1.7,0.1-2.5,0.3
				c-3.2,0.6-5.9,2-7.7,3.3C137,15.7,136,17,135.6,17.4z"/>
			<path d="M145.2,25.9c0.2,1.4,1.1,2.9,2.3,3.6c0.6,0.3,1.3,0.5,1.9,0.4c0.3-0.1,0.7-0.1,1-0.3c0.3-0.1,0.7-0.3,1-0.5
				c0.6-0.4,1.2-0.8,1.7-1.1c0.5-0.3,0.9-0.7,1.2-0.9c0.7-0.4,1-0.5,0.9-0.3c-0.2,0.2-0.2,0.7-0.4,1.5c-0.2,0.7-0.7,1.7-1.9,2.7
				c-1.2,0.9-2.7,1.4-4,1.5c-0.7,0.1-1.3-0.1-1.8-0.2c-0.5-0.2-1-0.3-1.4-0.5c-0.7-0.4-0.9-0.6-1.2-1.1c-0.2-0.3-0.4-0.6-0.7-1.1
				c-0.3-0.5-0.6-1.2-1-2.3c-0.7-2.1-0.3-3.4,0-3.9c0.3-0.6,0.7-0.4,0.9,0.1c0.2,0.5,0.5,1.2,0.8,1.7
				C144.9,25.6,145.2,25.9,145.2,25.9z"/>
			<path d="M155.7,25.7c-0.1,0.8,0.1,1.9,0.5,2.7c0.2,0.4,0.5,0.7,0.7,0.9c0.3,0.2,0.5,0.4,0.8,0.5c0.7,0.3,1.4,0.5,1.9,0.7
				c0.5,0.2,0.7,0.4,0.5,0.5c-0.2,0-0.3,0.3-0.7,0.7c-0.4,0.3-1,0.7-2,0.5c-1-0.2-1.9-0.7-2.5-1.2c-0.6-0.5-1-1.1-1.3-1.5
				c-0.3-0.4-0.3-0.6-0.3-0.9c0-0.4,0-1-0.2-2.2c-0.1-2.5,1.3-2.8,1.5-2.2c0.1,0.3,0.4,0.8,0.6,1.1
				C155.5,25.4,155.7,25.7,155.7,25.7z"/>
			<path d="M168.9,49.5c0,3.9,0.1,8.2-0.1,12.9c-0.1,2.3-0.3,4.8-0.7,7.1c-0.3,2.3-0.6,4.7-0.9,7.2c-1.1,9.7-2.3,19.9-4.5,28.9
				c-2.2,9.1-5.1,15.1-7.3,18.4c-0.5,0.8-1,1.4-1.4,1.9c-0.4,0.5-0.7,0.8-0.9,1.1c-0.4,0.4-0.5,0.3-0.1-0.3c0.4-0.6,0.8-1.4,1.2-2.4
				c0.4-1.1,0.9-2.3,1.4-4c1.1-3.3,2.3-7.9,3.9-14.5c1.5-6.7,2.4-12.8,3-18.1c0.6-5.2,0.9-9.6,1.2-12.8c0.2-3.2,0.4-4.1,0.9-6.7
				c0.5-2.4,1.2-6.4,0.9-16c0-2.4-0.1-4.6,0-6.6c0.1-2,0.2-3.7,0.3-5.2c0.2-2.9,0.3-5,0.4-6.3c0.1-1.3,0.1-1.9,0.4-1.8
				c0.2,0.1,0.6,0.9,0.8,2.2c0.5,2.8,0.6,6.5,0.9,9.5C168.6,47.2,168.9,49.5,168.9,49.5z"/>
			<path d="M161.8,179.6c-0.2,6.6-1.2,13.3-1.3,15.7c0,2.4-1.4,10.8-3.8,19.1h-2.3c0.2-0.8,0.4-1.6,0.6-2.4
				c2.1-7.8,3.6-16.8,4.1-23.2c0.3-3.2,0.4-6.9,0.3-10.6c-0.1-3.8-0.2-7.7-0.5-11.5c-0.3-3.8-0.8-7.4-1.4-10.6
				c-0.7-3.2-1.4-6.1-1.9-8.3c-0.5-1.7-0.7-3.4-0.9-4.8c-0.2-1.4-0.4-2.8-0.6-4.3c-0.3-2.9-0.5-6-0.5-9.5c0-1.4,0.5-2.6,1.1-2.4
				c0.2,0.1,0.5,0.5,0.7,1.3c0.8,2.5,2,5.5,2.4,7.6c0.5,2.2,1.2,5,1.5,7.9c0.3,2.7,0.6,5.4,0.9,7.3c0.1,1,0.3,2.1,0.5,3.4
				c0.2,1.3,0.4,2.7,0.5,4c0.3,2.7,0.5,5.3,0.7,6.8C162.2,166.8,162.1,173.1,161.8,179.6z"/>
			<path d="M86.7,209.7c-0.1,0.6-0.2,1.3-0.3,2.1c0,0.4-0.1,0.8-0.2,1.2c-0.1,0.5-0.1,0.9-0.2,1.4H83c0.2-0.7,0.5-1.8,0.7-4.2
				c0.2-1.7,0.4-2.9,0.6-3.8c0.1-0.5,0.3-0.9,0.4-1.1c0.4-0.7,0.9-0.6,1,0.2c0,0.2,0.1,0.5,0.2,0.8c0.1,0.5,0.2,1.1,0.4,1.6
				c0,0.1,0.1,0.2,0.1,0.3C86.5,209,86.7,209.7,86.7,209.7z"/>
			<path d="M67.4,169.4c0.6-1,1.4-2.2,2.4-3.2c1-1,2.3-1.8,3.7-2.1c1.3-0.3,2.4-0.1,2.9,0.2c0.5,0.3,0.6,0.5,0.5,0.4
				c-0.4,0-1.1,0.6-2.7,1c-1.6,0.5-2.6,1.5-3,2.2c-0.2,0.3-0.3,0.4-0.6,0.5c-0.2,0.2-0.7,0.5-1.2,1.5c-0.5,1-0.8,1.6-1.2,1.9
				c-0.3,0.3-0.6,0.2-0.6-0.2c-0.1-0.4-0.1-0.9-0.1-1.4C67.4,169.8,67.4,169.4,67.4,169.4z"/>
			<path d="M75.4,177.1c-0.9,0.1-2,0.8-2.8,1.8c-0.8,1-1.5,2.1-2,3.2c-0.5,1.1-0.8,1.9-1.1,2.4c-0.2,0.5-0.4,0.7-0.4,0.5
				c0-0.2-0.2-0.5-0.3-1c-0.1-0.5-0.2-1.3,0.1-2.3c0.7-2,1.6-3.5,2.2-4.4c0.3-0.4,0.5-0.5,0.8-0.7c0.4-0.2,0.9-0.6,2.4-1.2
				c1.6-0.5,2.6-0.1,2.9,0.2c0.4,0.3,0.2,0.6-0.2,0.6c-0.4,0-0.9,0.3-1.2,0.5C75.6,176.9,75.4,177.1,75.4,177.1z"/>
			<path d="M75.5,189.1c-0.7,0.9-1.2,2.3-1.5,3.7c-0.3,1.4-0.5,2.9-0.6,4.3c-0.1,1.4-0.1,2.3-0.1,2.9c0,0.6-0.1,0.9-0.2,0.7
				c-0.1-0.2-0.4-0.4-0.7-0.9c-0.3-0.5-0.7-1.3-0.7-2.4c0-2.3,0.2-4.1,0.3-5.2c0.1-0.6,0.2-0.7,0.4-1.1c0.2-0.4,0.5-1,1.3-2.4
				c0.8-1.4,1.7-2,2.2-2.2c0.5-0.1,0.6,0.1,0.4,0.5c-0.2,0.4-0.4,0.9-0.5,1.4C75.6,188.7,75.5,189.1,75.5,189.1z"/>
			<path d="M83.7,195.3c0.4,2.4,2.1,5.3,3.7,7.5c0.8,1.1,1.4,1.9,1.7,2.4c0.3,0.5,0.4,0.8,0.2,0.7c-0.3-0.3-1.6-0.1-3.1-1.8
				c-1.5-1.7-2.5-3.3-3.1-4.1c-0.3-0.4-0.3-0.6-0.4-1c-0.1-0.4-0.3-1.1-0.7-2.6c-0.4-1.5-0.3-2.5-0.1-3c0.2-0.5,0.5-0.4,0.7,0
				c0.2,0.4,0.5,0.9,0.7,1.3C83.5,195,83.7,195.3,83.7,195.3z"/>
			<path d="M88.4,184.6c0.6,0.9,2.2,1.4,3.3,1.8c1.2,0.4,1.8,1.1,1.6,1.1c-0.2,0-0.7,0.8-1.9,0.6c-1.2-0.3-2.1-0.5-2.7-0.6
				c-0.6-0.2-0.2-0.3-1.5-1.3c-0.6-0.6-0.7-1.1-0.7-1.5c0.1-0.3,0.3-0.5,0.5-0.4c0.2,0.1,0.5,0.2,0.8,0.2
				C88.2,184.6,88.4,184.6,88.4,184.6z"/>
			<path d="M86.3,173.2c0.7,0.8,2.1,1.2,3.2,1.8c1,0.6,1.3,1.5,1.1,1.4c-0.2-0.1-0.8,0.6-1.7,0.2c-0.9-0.4-1.7-0.6-2.3-0.7
				c-0.5-0.1-0.2-0.3-1.3-1.1c-1.2-0.9-0.6-1.8-0.2-1.7C85.5,173.3,86.3,173.2,86.3,173.2z"/>
			<path d="M155,81.4c0.9,0.2,2.1,0.2,3.4,0.2c1.3,0,2.8,0.1,4,0.8c1.2,0.6,1.8,1.5,2,2c0.2,0.5,0.2,0.8,0,0.6
				c-0.3-0.2-1.2-0.4-2.6-1c-1.5-0.6-2.9-0.4-3.7-0.3c-0.8,0.1-0.4-0.2-3-0.4c-1.3-0.1-2.1-0.7-2.3-1.1c-0.2-0.4,0-0.6,0.3-0.6
				c0.3,0,0.8,0,1.2-0.1C154.7,81.5,155,81.4,155,81.4z"/>
			<path d="M156.9,70.2c1.4,0.2,3.3-0.2,4.9,0s2.2,1.1,2,1.1c-0.2,0-0.7,0.9-1.9,0.9c-1.2,0-2.2,0.2-2.7,0.4c-0.6,0.2-0.3-0.2-2-0.2
				s-2-1.1-1.5-1.3C156.1,70.9,156.9,70.2,156.9,70.2z"/>
			<path d="M160.9,58c1.6,0,3.8-0.5,5.8-0.2c2,0.3,2.6,1.2,2.3,1.1c-0.3-0.1-0.9,0.3-2.3,0.3c-1.4-0.1-2.5,0.1-3.1,0.3
				c-0.6,0.2-0.4-0.1-2.3,0c-2,0.2-2.4-0.6-1.8-0.7C160,58.5,160.9,58,160.9,58z"/>
			<path d="M160.6,45.9c1-0.1,2.5-0.7,3.7-0.5c1.2,0.2,1.6,1.1,1.4,1.1c-0.2,0-0.6,0.7-1.4,0.7c-0.8,0-1.4,0.2-1.8,0.5
				c-0.3,0.3-0.2-0.2-1.3,0.1c-1,0.3-1.6-0.5-1.4-0.8C160.2,46.6,160.6,45.9,160.6,45.9z"/>
			<path d="M161.6,36.2c0.4,0.4,1.2,0.2,1.9,0.3c0.6,0.2,1.1,0.9,1,0.9c-0.1,0-0.2,0.8-0.9,0.9c-0.6,0-1.2,0.1-1.5,0.3
				c-0.4,0.1-0.2-0.2-1.1-0.5c-0.5-0.2-0.6-0.6-0.5-0.9c0-0.3,0.2-0.5,0.4-0.5c0.1,0,0.4-0.1,0.5-0.2
				C161.5,36.3,161.6,36.2,161.6,36.2z"/>
			<path d="M153.1,169.8c1.4,0.5,3.3,0.9,4.7,1.7c1.4,0.8,1.6,1.8,1.4,1.7c-0.2-0.1-1,0.4-2-0.1c-1.1-0.5-2-0.6-2.6-0.6
				c-0.6,0-0.2-0.3-1.7-0.8c-0.8-0.2-1.1-0.4-1.3-0.7c-0.2-0.3-0.3-0.5,0-0.7C152.1,170.1,153.1,169.8,153.1,169.8z"/>
			<path d="M155.2,192.2c1.8,1.2,4,3.2,5.1,5.4c0.5,1.1,0.6,2,0.6,2.5c0,0.5-0.2,0.7-0.2,0.6c-0.1-0.3-1-0.7-1.8-2.1
				c-0.8-1.4-1.8-2.3-2.5-2.7c-0.3-0.2-0.4-0.3-0.5-0.6c-0.2-0.2-0.4-0.7-1.3-1.3c-0.9-0.6-1.4-1-1.6-1.3c-0.2-0.4-0.1-0.6,0.3-0.6
				c0.4,0,0.9,0,1.3,0C154.8,192.1,155.2,192.2,155.2,192.2z"/>
			<path d="M151.3,214.4h-2c-0.1-0.3-0.2-0.7-0.3-1.1c-0.4-1.2-0.2-2.2,0.2-2.5c0.3-0.4,0.6-0.2,0.7,0.1c0.1,0.7,1,1.6,1,1.6
				C150.8,213,151,213.7,151.3,214.4z"/>
			<path d="M153.7,152.8c1,0.7,2.7,1,3.9,1.5c1.3,0.5,1.8,1.3,1.5,1.3c-0.2,0-0.8,0.7-1.9,0.4c-1.1-0.3-2-0.4-2.6-0.4
				c-0.6,0-0.2-0.3-1.7-1c-1.4-0.7-1.2-1.8-0.7-1.7C152.8,153,153.7,152.8,153.7,152.8z"/>
			<path d="M87.9,211.1c2.1,0.4,5,0.6,7.2,1.1c1.1,0.2,1.9,0.5,2.3,0.7c0.5,0.2,0.7,0.4,0.5,0.5c-0.3,0-1.1,1-2.9,0.8
				c-1.8-0.2-3.3-0.3-4.1-0.2c-0.8,0.1-0.4-0.4-2.8-0.6c-1.2-0.1-1.9-0.3-2.2-0.6c-0.4-0.3-0.3-0.6,0-0.7
				C86.6,211.7,87.9,211.1,87.9,211.1z"/>
		</g>
		<g>
			<path class="st2" d="M52.8,32.4c0-3.3,0-3.9-0.4-4.6c-0.4-0.7-1.2-0.7-2.1-0.7c-1.7,0-3.3,0.4-4.3,1.3c-1.1,0.9-2,2.5-2.6,3.9
				c-0.1,0.2-0.1,0.3-0.6,0.2c-0.4-0.1-0.4-0.2-0.4-0.4c0.3-1.9,0.5-4.4,0.7-6.3c4.1,0.1,8,0.1,11.9,0.1c3.8,0,7.8,0,12-0.1
				c0.1,1.9,0.4,4.4,0.7,6.3c0,0.2,0,0.3-0.4,0.4c-0.5,0.1-0.5,0-0.6-0.2c-0.5-1.3-1.5-3-2.5-3.9c-1-0.9-2.6-1.3-4.4-1.3
				c-0.9,0-1.6-0.1-2.1,0.7c-0.5,0.8-0.5,2.4-0.5,4.6v13.2c0,3.6,0,4,0.3,4.8c0.4,0.7,1.4,0.8,2.8,0.9c0.3,0,0.3,0.1,0.3,0.5
				c0,0.4-0.1,0.5-0.4,0.5c-1.6-0.1-3.6-0.1-5.2-0.1c-1.7,0-3.6,0-5,0.1c-0.3,0-0.3-0.1-0.3-0.4c0-0.4,0.1-0.5,0.3-0.5
				c1.3-0.1,2.1-0.2,2.5-0.9c0.4-0.9,0.3-2.4,0.3-4.8V32.4z"/>
			<path class="st2" d="M99.1,38.9c0,8-5.9,13.9-14.1,13.9S71,46.9,71,39c0-8,5.8-13.8,14-13.8S99.1,30.8,99.1,38.9z M76,38.9
				c0,7.7,3.6,12.6,9,12.6s9-5,9-12.5c0-7.7-3.7-12.6-9-12.6S76,31.4,76,38.9z"/>
			<path class="st2" d="M110.9,45.5c0,3.6,0,4.2,0.3,4.8c0.4,0.8,1.4,0.8,2.9,0.9c0.3,0,0.3,0.1,0.3,0.5c0,0.4,0,0.5-0.3,0.5
				c-1.7-0.1-3.6-0.1-5.3-0.1c-1.7,0-3.7,0-5.2,0.1c-0.2,0-0.3,0-0.3-0.5c0-0.4,0.1-0.5,0.3-0.5c1.4-0.1,2.1-0.1,2.5-0.9
				c0.4-0.8,0.4-2.4,0.4-4.8V32.4c0-3.5,0-3.9-0.4-4.7c-0.4-0.7-1.5-0.8-2.9-0.9c-0.3,0-0.3-0.1-0.3-0.5c0-0.4,0.1-0.5,0.3-0.5
				c1.6,0.1,3.7,0.1,5.4,0.1c1.4,0,3.6-0.1,6-0.1c7.6,0,10.2,2.9,10.2,7c0,4-2.4,7.6-11.3,7.6c-0.8,0-1.8,0-2.7-0.1V45.5z
				 M110.9,38.8c0.7,0.1,1.5,0.2,2.3,0.2c5.2,0,7-2.7,7-6.1c0-3.9-2.3-6-6.3-6c-0.8,0-2.1,0.1-2.6,0.8c-0.5,0.8-0.5,2.6-0.5,4.6
				V38.8z"/>
		</g>
		<g>
			<g class="st6">
				<path class="st2" d="M44.4,71.5c-0.1-0.1-0.2-0.3-0.3-0.5c0,0.1,0,0.2-0.1,0.4C44,71.6,44.2,71.6,44.4,71.5z"/>
				<path class="st2" d="M43.9,70.6C43.9,70.6,43.9,70.6,43.9,70.6c-0.1-0.1-0.1-0.1-0.2-0.1C43.8,70.6,43.9,70.6,43.9,70.6z"/>
				<path class="st2" d="M43.2,70c0.1,0.2,0.2,0.3,0.3,0.4C43.4,70.3,43.4,70.1,43.2,70z"/>
				<path class="st2" d="M43.4,70.8c0.1-0.1,0.2-0.2,0.3-0.2c0,0,0,0,0,0c-0.1,0-0.2-0.1-0.3-0.1C43.5,70.5,43.5,70.6,43.4,70.8z"/>
				<path class="st2" d="M43.4,70.8c-0.1,0.1-0.1,0.3-0.2,0.3C43.3,71,43.4,70.9,43.4,70.8z"/>
				<path class="st2" d="M40.6,72.6c-0.1,0,0.6-0.6,0.4-0.6c-0.5-0.2-1-0.2-1.3-0.5c-0.3,0,0.4-0.9,0.1-0.9
					c-0.5-0.2-2.2-0.3-1.7,0.2c0.7,0.7,1.3,1.1,2,1.7c0.7,0.3,1.5,0.6,2.2,1c0.2,0.1,0.2,0.3,0.3,0.5c0-0.3-0.1-0.6-0.1-0.9
					C42.3,72.6,41.1,73,40.6,72.6z"/>
				<path class="st2" d="M46.3,75c-0.1,0-0.4,0-0.4,0c0.3-0.7-0.2-0.9-0.6-1.1c-0.1,0.1-0.2,0.3-0.3,0.4c0.2,0.2,0.4,0,0.5-0.3
					c-0.2,0.8,0.1,1.2,0.4,1.5C46.1,75.4,46.3,75.2,46.3,75z"/>
				<path class="st2" d="M46.1,75.7c-0.1-0.1-0.2-0.1-0.2-0.2c0,0,0,0-0.1,0.1C45.9,75.7,46,75.7,46.1,75.7
					C46.1,75.7,46.1,75.7,46.1,75.7z"/>
				<path class="st2" d="M41.3,69c-0.8-1-1.4-1.9-2-2.9c-0.2,0-0.4,0.1-0.4,0c0.1-0.2,0.1-0.3,0.1-0.4c-0.1-0.1-0.2-0.3-0.3-0.4
					c-0.1,0-0.1-0.1-0.2-0.1c0,0,0,0,0,0c-0.1,0-0.2,0.1-0.3,0.2c0,0.1-0.1,0.2-0.2,0.3c0-0.1,0.1-0.2,0.2-0.3
					c0.1-0.1,0.1-0.3,0.1-0.4c-0.1-0.1-0.3-0.2-0.3-0.4c0.2,0.1,0.3,0.2,0.3,0.4c0.1,0.1,0.2,0.1,0.3,0.1c0,0,0.1,0,0.1,0
					c-0.2-0.3-0.4-0.7-0.6-1c-0.1-0.1-0.1-0.1-0.2-0.1c-0.3-0.1-0.5-0.3-0.3-0.7c0-0.1-0.1-0.1-0.1-0.2c0,0,0,0.1,0,0.1
					c0,0,0-0.1,0-0.1c-0.1-0.3-0.3-0.5-0.4-0.8c-0.3,0-0.6-0.1-0.8-0.1c0,0,0.2-0.3,0.3-0.4c-0.2,0.1-0.4,0.1-0.6,0
					c-0.1,0.3-0.3,0.6-0.4,0.8c-0.3,0.4,1-0.2,0.4,0.5c0.6-0.7-0.7,0-0.4-0.5c0.1-0.2,0.2-0.5,0.4-0.8c-0.3-0.1-0.4-0.5-0.2-1
					c0.5,0,0.4,0.5,0.2,1c0.1,0.1,0.3,0,0.6,0c-0.1,0.1-0.3,0.4-0.3,0.4c0.2,0.1,0.5,0.1,0.8,0.1c-0.3-0.5-0.5-1-0.8-1.5
					c-1.7-3.3-3.9-6-5.8-9.3c-1-1.8-1.9-3.7-2.6-5.6c-1.5-3.8-4.6-5.9-5.1-10.5c-0.2-1.7-2.3-3.7-3.3-4.8c-2.5-0.6-5.1,2.7-5.3,2.9
					c-2.1,3.1,0,2.7-0.1,5.9c-0.1-2,2.5-0.4,1.6,2.3c-1.6,4,2.7,4.9,3.7,7.7c0.2,0.7,0.8,1.2,1.3,1.9c1.6,4.2,5.3,6.6,7.8,10.4
					c0.7,1,2.1,1.3,3.1,1.8c0.6,0.5,0.7,1.4,1.1,1.9c0.6,0.8,1.3,1.2,2.2,1.6c-0.7-0.6-1.3-1-2-1.7c-0.4-0.5,1.3-0.4,1.7-0.2
					c0.3,0-0.4,0.9-0.1,0.9c0.2,0.3,0.8,0.4,1.3,0.5c0.3,0-0.5,0.6-0.4,0.6c0.5,0.3,1.8,0,1.8,0.4c0.1,0.3,0.1,0.6,0.1,0.9
					c0.1,0.2,0.1,0.3,0.2,0.4c0.1,0,0.3,0.1,0.4,0.1c0.2-0.2,0.5-0.5,0.7-0.7c0.1,0.2,0,0.5,0.1,0.6c-0.1-0.2,0-0.5-0.1-0.6
					c-0.3,0.2-0.5,0.5-0.7,0.7c0.9,0.3,1.9,0.7,2.7,1.1c0,0,0,0,0.1-0.1c-0.4-0.3-0.6-0.8-0.4-1.5c0,0.3-0.3,0.4-0.5,0.3
					c0.1-0.1,0.2-0.3,0.3-0.4c0.5,0.2,1,0.4,0.6,1.1c0,0,0.3,0,0.4,0c0,0.2-0.3,0.4-0.5,0.5c0.1,0.1,0.2,0.1,0.2,0.2
					C41.2,69.9,41.3,69,41.3,69z"/>
				<path class="st2" d="M38.3,65c0.1,0,0.1,0.1,0.2,0.1c-0.2-0.3-0.3-0.6-0.5-0.8C37.7,64.7,38,64.8,38.3,65z"/>
			</g>
		</g>
	</g>
</g>
</svg>
