<?xml version="1.0" encoding="utf-8"?>
<!-- Generator: Adobe Illustrator 16.0.0, SVG Export Plug-In . SVG Version: 6.00 Build 0)  -->
<!DOCTYPE svg PUBLIC "-//W3C//DTD SVG 1.1//EN" "http://www.w3.org/Graphics/SVG/1.1/DTD/svg11.dtd">
<svg version="1.1" id="Layer_1" xmlns="http://www.w3.org/2000/svg" xmlns:xlink="http://www.w3.org/1999/xlink" x="0px" y="0px"
	 width="512px" height="512px" viewBox="0 0 512 512" enable-background="new 0 0 512 512" xml:space="preserve">
<g id="Layer_1_1_">
	<g id="righ_chevron">
		<g>
			<path d="M431,256.42c0.02,4.73-1.92,9.33-5.32,12.63L209.05,478.9c-3.28,3.18-7.61,4.93-12.17,4.93c-4.78,0-9.25-1.89-12.57-5.32
				c-6.72-6.93-6.54-18.029,0.39-24.75l203.569-197.2L184.78,61.9c-6.97-6.67-7.22-17.77-0.55-24.75c3.28-3.43,7.89-5.4,12.65-5.4
				c4.52,0,8.82,1.72,12.09,4.85L425.6,243.83C429.02,247.1,430.99,251.69,431,256.42z"/>
		</g>
	</g>
</g>
</svg>
