<svg xmlns="http://www.w3.org/2000/svg" width="551.125" height="530.806" viewBox="0 0 551.125 530.806">
  <g id="Group_42" data-name="Group 42" transform="translate(-55.41 -66.43)">
    <g id="Group_5" data-name="Group 5" transform="translate(55.41 66.43)">
      <path id="Path_3" data-name="Path 3" d="M479.841,204.822c-7.965-.5-17.034.891-26.171,1.894-20.461,2.24-43.684-5.816-53.551-26.428a30.466,30.466,0,0,1-1.69-22.545c1.7-5.692,2.193-11.587,3.4-17.353.579-2.75-.2-4.743-3.082-5.94A49.294,49.294,0,0,1,386.72,127.5a28.194,28.194,0,0,1-5.939-6.485c-1.247-1.892-1.779-3.8-.5-5.7a6.221,6.221,0,0,1,5.772-2.868c5.993.256,11.976.6,17.972-.419,3.073-.525,4.474-1.813,4.779-5.021.522-5.41.845-10.855,2.113-16.187.745-3.132,2.364-3.938,5.414-3.316,7.544,1.532,12.922,7.063,13.689,14.643.188,1.845.921,2.091,2.406,1.56a17.393,17.393,0,0,0,2.233-.81c8.5-4.434,17.731-6.8,26.833-9.522a5.937,5.937,0,0,0,4.285-3.95c1.889-5.388,4.2-10.67-.187-16.08-1.367-1.691.05-3.821,2.667-4.219a14.246,14.246,0,0,1,9.575,1.592c4.594,2.775,8.838,6.126,9.8,11.945.373,2.225,1.056,2.6,3.376,2.024,6.267-1.546,12.352-3.826,18.765-4.778,2.425-.366,3.9-1.291,3.736-4.155-.1-1.766.527-3.575.844-5.362.575-3.28,2.885-4.156,5.763-3.925,3.474.279,8.179,4.528,8.338,7.975.149,3.179,1.578,3.308,4.125,3,9.2-1.1,18.333-3.144,27.651-2.81a43.307,43.307,0,0,1,21.393,5.941c2.234,1.355,3.247,3.14,2.744,5.668-.474,2.392-2.348,2.973-4.475,3.467-3.629.844-7.215.321-10.828.2a146.018,146.018,0,0,0-27.086,2.137c-3.686.566-7.366,1.227-11.068,1.687-2.289.288-3.83,1.272-4.386,3.566-2.145,8.864-5.99,17.11-9.227,25.575-.8,2.085-1.039,4.176,1.363,5.691,2.38,1.5,1.367,3.306-.332,4.261-3.367,1.877-4.49,4.851-5.172,8.325-.99,5.032-4.493,7.082-9.24,5.223-1.937-.754-3.043.2-4.329,1a61.832,61.832,0,0,1-32.619,9.174c-6.439.084-10.278-2.8-12.726-8.766-2.748-6.718-2.274-13.562-1.144-20.462,1.019-6.244,1-6.327-4.837-4.063-5.475,2.124-10.817,4.595-16.314,6.648-2.635.984-3.576,2.994-4.091,5.3-2.469,11.07-5.668,21.985-7.2,33.251-1.306,9.664,3.63,17.406,12.772,20.8,8.1,3.009,16.358,3.29,24.788,2.2A272.229,272.229,0,0,1,502.3,188.9c11.62.393,22.969,2.753,34.265,5.154,23.413,4.979,53.645,12.667,76.063,21.181a26.867,26.867,0,0,1,7.772,4.158c4.819,4,5.625,8.691,2.026,13.813-4.709,6.7-11.453,9.452-19.45,9.015-7.34-.4-14.251-2.778-20.913-5.692-11.741-5.138-30.35-12.455-42.141-17.458-11.983-5.078-23.784-10.752-36.784-13.057-7.32-1.3-14.677-1.116-23.3-1.192m22.731-100.431c-5.6,1.575-11.036,3.05-16.427,4.656-2.36.7-3.546,2.468-4.2,4.878-1.746,6.355-2.708,12.861-4.047,19.292-.4,1.9.3,2.386,1.918,1.708,1.878-.791,3.6-2.054,5.535-2.59,7.262-2.012,11.966-6.4,13.75-13.832,1.114-4.646,4.177-8.819,3.475-14.112" transform="translate(-80.738 -66.43)" fill="#fff"/>
      <g id="Group_2" data-name="Group 2" transform="translate(7.121 222.42)">
        <path id="Path_4" data-name="Path 4" d="M261.839,323.467c-17.057-1-31.847,7.527-46.417,16.686-4.4,2.765-8.47,6.026-13.09,8.518-2.777,1.5-4.533,4.39-6.579,6.816-3.279,3.887-6.479,7.853-9.741,11.762a26.961,26.961,0,0,1-2.144,2.188c-5.416,5.158-9.406,4.6-13.779-1.513a23.846,23.846,0,0,1-4.139-9.865,13.163,13.163,0,0,0-2.578-5.87c-2.168-2.721-1.76-5.237.3-7.682,3.74-4.415,7.48-8.829,11.321-13.151,5.241-5.906,9.816-12.153,11.719-20.038.642-2.658,2.484-3.97,5.341-3.531,3.452.532,6.967.809,10.357,1.6,5.377,1.258,8.6,5.315,10.861,9.929,1.039,2.111,1.738,2.336,3.741,1.595,9.658-3.584,19.389-6.97,29.737-8.015,10.062-1.012,20.221-1.968,30.081.638,8.329,2.2,16.74,4.634,23.367,10.87a32.819,32.819,0,0,1,8.28,12.21c3.707,9.9,6.145,19.745,5.153,31.056-.961,7.287-1.792,14.635-2.412,21.975a64.721,64.721,0,0,1-1.4,9.074c-4.153,14.817-7.037,29.961-14.011,43.985-6.908,13.891-12.651,28.368-18.864,42.6-1.771,4.063-3.886,5.373-6.394,2.263-3.161-3.923-14.821,8.117-19.633,6.623-4.689-1.452-.688-13.221,1.149-18.005,2.2-5.7,4.253-11.513,7.107-16.89,4.3-8.116,6.146-17.063,9.488-25.489,3.788-9.563,7.557-19.149,10.918-28.869a97.258,97.258,0,0,0,3.589-15.2c1.272-7.379,3.442-14.546,5.184-21.8,2.388-9.919,1.362-19.751.663-29.577-.584-8.295-7.861-14.376-16.574-14.87-3.166-.177-6.352-.029-10.6-.029" transform="translate(-70.854 -307.703)" fill="#fff"/>
        <path id="Path_5" data-name="Path 5" d="M146.635,329.873a28.507,28.507,0,0,1-2.908,16.547c-2.159,4.017-4.694,7.924-7.158,11.823-2.548,4.047-2.62,4.506,1.771,6.2a15.613,15.613,0,0,1,9.314,9.213,16.515,16.515,0,0,1,.959,9.166c-1.819,10.826-8,19.354-14.179,27.867a54.327,54.327,0,0,1-13.12,12.6c-4.557,3.17-9.557,3.43-14.612,1.569-2.817-1.042-3.758-.247-3.747,2.578.038,11.239-2.6,21.977-5.511,32.768-1.683,6.253-4.107,12.139-6.285,18.163-1.524,4.2-6.447,6.785-11.24,6.836-4.324.05-8.473.107-12.218-2.561a9.934,9.934,0,0,1-4.547-7.965,20.808,20.808,0,0,1,3.218-12.63c2.371-3.561,2.79-7.88,3.987-11.88,3.678-12.272,7.4-24.543,10.671-36.929,2.4-9.076,4.79-18.224,4.455-27.78-.06-1.627-.131-3.1-1.617-4.243a3.836,3.836,0,0,1-1.009-4.671,4.523,4.523,0,0,1,4.4-2.465,13.03,13.03,0,0,1,11,6.443c3.561,5.945,6.029,12.407,6.061,19.533.016,4.278,1.231,8.544.053,12.844-.186.675-.414,1.782.45,2.152,1.059.458,1.586-.653,2.123-1.294,3.041-3.668,6.115-7.307,9.009-11.088a86.424,86.424,0,0,1,9.18-10.9c2.387-2.239,3.893-4.239,4.462-7.1a23.988,23.988,0,0,0,.514-4.368c.012-1.173-.568-3.744-1.821-4.4-1.086-.573-2.335.459-3.469.967-3.645,1.634-5.56,4.751-7.22,8.146-1.814,3.719-5.226,4.83-8.966,5.118a4.293,4.293,0,0,1-4.639-2.7,59.743,59.743,0,0,0-3.247-5.925c-1.566-2.7-1.5-5.578-.878-8.826,2.118-10.936,9-18.822,15.827-26.881,2.685-3.167,3.293-7.165,3.026-11.233-.151-2.355-1.775-2.445-3.436-1.659-6.329,3-12.759,5.814-18.428,10.041-3.844,2.874-7.746,5.535-13,4.558-3.674-.687-7.946-6.6-7.139-10.267.265-1.175.525-2.481,2.108-2.763,4.953-.891,8.767-4.157,13.024-6.448,6.734-3.627,13.225-7.705,19.885-11.48,4.439-2.513,9.552-1.462,14.3-2.421a20.688,20.688,0,0,1,9.38-.107c7.082,1.824,11.263,7.555,11.209,15.852" transform="translate(-63.135 -308.158)" fill="#fff"/>
        <path id="Path_6" data-name="Path 6" d="M224.059,453.183c-5.1,2.444-10,4.529-14.641,7.076a214.328,214.328,0,0,1-19.58,9.44,24.838,24.838,0,0,1-14.3,1.744,11.789,11.789,0,0,1-8.21-6.108c-3.268-5.768-2.027-15.261,2.627-20.011,4.553-4.65,13.016-3.913,16.766,1.46a6.915,6.915,0,0,1,.522,7.984,8.564,8.564,0,0,0-1.153,3.037c8.185-6.322,12.5-15.018,15.868-24.992-3.636.68-6.18,2.417-8.785,3.826-4.392,2.369-8.056,1.344-11.534-1.693-2.051-1.791-1.984-3.387.37-4.857q11.527-7.2,23.13-14.279c1.994-1.218,3.74-2.577,4.483-4.893,2.247-7.025,4.5-14.05,6.7-21.094.325-1.034.974-2.381-.175-3.143-1.07-.711-2.167.261-3.091.861a84.883,84.883,0,0,0-22.206,20.826c-1.294,1.741-2.434,4.03-5.3,3.522-3.149-.563-4.851-2.6-5.772-5.566-1.5-4.824-1.684-9.827-2.083-14.8a6.366,6.366,0,0,1,1.675-4.37c7.623-9.737,15.3-19.443,24.015-28.218,5.044-5.085,12.494-3.968,15.979,3.373,3.33,7.011,7.293,7.833,13.919,5.757,5.221-1.635,10.572-.422,15.423,2.274,1.151.641,2.791,1.149,2.444,2.855-.336,1.639-1.96,1.8-3.308,1.773-5.155-.105-9.722,1.958-14.4,3.686a3.793,3.793,0,0,0-2.84,4.06c.109,6.465.517,12.949-.9,19.347-.4,1.826.772,2.089,2.19,2.094,4.531.023,8.952.57,13,2.828,1.566.874,3.74,1.568,3,3.856-.665,2.049-2.763,2.082-4.64,1.842-5.183-.666-10.141.389-15.087,1.807a5.254,5.254,0,0,0-3.665,3.626c-2.911,7.781-4.86,15.831-6.944,23.849-.541,2.083-.123,2.316,1.989,2.416,7.1.337,11.672-2.391,13.367-9.568a17.186,17.186,0,0,1,2.861-6.143c1.48-2.009,3.414-3.082,5.893-2.144,2.377.9,2.958,2.808,2.723,5.248-.93,9.6-2.145,19.142-5.275,28.338a66.966,66.966,0,0,1-5.857,12.212,6.188,6.188,0,0,1-7.523,3.045c-3.7-1.193-5.7-3.751-5.634-7.177.072-3.958,1.534-7.529,3.038-11.092a6.187,6.187,0,0,0,.924-3.918" transform="translate(-71.133 -311.463)" fill="#fff"/>
      </g>
      <g id="Group_3" data-name="Group 3" transform="translate(0 17.369)">
        <path id="Path_7" data-name="Path 7" d="M251.26,157.385c-5.411,1.016-10.828-.874-16.008-4.529-3.994-2.814-5.468-6.806-6.677-11.064a3.823,3.823,0,0,1,1.526-4.231,3.585,3.585,0,0,1,4.394-.054,12.49,12.49,0,0,0,11.935.854c7.964-3.348,15.53-7.429,23.116-11.5a11.573,11.573,0,0,0,5.528-6.924,230.343,230.343,0,0,0,8.942-32.346c.532-2.862,1.672-2.862,3.519-1.168a28.184,28.184,0,0,1,9.166,18.705c.318,3.253,1.161,6.452.1,9.751-.556,1.726.143,2.431,2.178,2.662,7.775.9,15.435,2.331,21.986,7.111a17.8,17.8,0,0,1,1.867,1.474c2.937,2.81,2.566,5.768-1.044,7.585-7.99,4.018-15.831,8.522-24.015,11.917-9.551,3.961-10.434,11.762-11.933,19.826a17.551,17.551,0,0,0-.056,2.72c-.114,6.2-.057,6.431,6.019,4.934,4.557-1.125,9.17-1.348,13.765-1.953,9.663-1.263,17.9,2.857,26.2,6.752,1.889.885,3.442,2.447,2.91,4.872a5.24,5.24,0,0,1-4.358,4.243,18.015,18.015,0,0,1-4.386.316c-7.6-.46-14.5,1.8-21.223,5.081-11.178,5.444-21.706,12.161-32.937,17.425-11.454,5.373-22.589,11.63-34.78,15.271-10.907,3.253-19.854-3.447-22.946-13.158-.759-2.38.751-3.1,2.514-3.513,5.563-1.31,10.589-3.859,15.676-6.365a74.651,74.651,0,0,0,17.98-12.114,22.193,22.193,0,0,0,4.235-5.3c4.108-7.215,5.473-15.323,7.471-23.221.75-2.95-.658-4.235-3.639-4.087-2.04.1-4.083.019-7.026.019" transform="translate(-67.79 -85.272)" fill="#fff"/>
        <path id="Path_8" data-name="Path 8" d="M163,210.656A60.519,60.519,0,0,1,123.831,197.4a45.885,45.885,0,0,1-5.716-5.309c-1.344-1.494-1.955-1.395-3.417.029-7.8,7.607-14.421,16.282-22.063,24.028a31.821,31.821,0,0,1-10.386,6.968c-3.485,1.472-6.826.15-9.166-2.826-4.17-5.3-6.19-11.563-8.4-17.726-2.195-6.114-1.35-9.173,4.262-13.217,8.549-6.161,15.679-13.746,22.6-21.54,11.9-13.4,23.4-27.141,33.984-41.6,7.9-10.772,14.766-22.136,15.6-36.039.133-2.24,1.129-2.047,2.63-1.082a35.491,35.491,0,0,1,12.2,13.465,12.675,12.675,0,0,1,1.244,6.224c-.053,9.777-3.471,18.493-7.262,27.322-6.183,14.383-14.932,27.166-23.445,40.119-3.978,6.057-3.337,9.228,3.544,11.934a87.1,87.1,0,0,0,17.285,5c7.224,1.223,13.477,4.5,19.533,8.354a5.915,5.915,0,0,1,1.681,1.648c1.161,1.711,2.277,3.573,1.3,5.683-.936,2.015-3.035,1.622-4.794,1.8a20.024,20.024,0,0,1-2.037.011" transform="translate(-56.047 -85.517)" fill="#fff"/>
        <path id="Path_9" data-name="Path 9" d="M220.091,131.081c-.8,8.135-4.134,14.828-8.741,20.808A83.363,83.363,0,0,1,199.4,164.412c-6.2,5.3-12.555,6-19.741,1.952a37.2,37.2,0,0,0-15.7-5.124,19.435,19.435,0,0,1-3.364-.467c-4.955-1.24-5.786-3.569-2.773-7.7,5.973-8.205,14.085-14.053,22.069-20.048,3.8-2.854,7.7-5.6,10.8-9.28,3.031-3.589,5.114-7.49,4.5-12.4-.294-2.352.931-3.9,2.786-5.03,2.041-1.248,3.038.641,4.367,1.548,2.72,1.846,5.55,3.554,8.169,5.526,5.991,4.513,8.548,10.893,9.584,17.691" transform="translate(-63.274 -86.884)" fill="#fff"/>
        <path id="Path_10" data-name="Path 10" d="M71.789,173.65c-10.892-1.524-21.434-9.74-13.747-22.853,4.673-7.974,10.5-15.072,15.524-22.755,2.8-4.285,5.725-8.474,7.592-13.255.927-2.371,2.162-2.785,4.407-1.735a56.727,56.727,0,0,1,15.688,10.639c4.134,4.029,4.937,8.67,2.861,14.3-4.994,13.576-14.375,23.7-24.849,33.063a9.055,9.055,0,0,1-7.478,2.593" transform="translate(-55.41 -87.4)" fill="#fff"/>
      </g>
      <g id="Group_4" data-name="Group 4" transform="translate(295.332 178.586)">
        <path id="Path_11" data-name="Path 11" d="M431.5,488.226c-.085-2.383.822-4.563,1.67-6.759.756-1.965.281-2.969-2.576-3.142-7.814-.469-14.49-3.048-19.253-8.652-.879-1.031-2-2.169-1.106-3.456.921-1.327,2.739-1.468,4.3-1.154,8.388,1.694,15.911-.514,23.2-3.288a433.3,433.3,0,0,1,45.091-14.81c11.825-3.065,24.17-4.367,36.622-1.949,6.023,1.171,11.073,4.386,16.114,7.391.556.335,1.234.78,1.022,1.409-.286.867-1.282.648-2.037.6-14.87-1.009-28.8,2.544-42.834,5.522-6.554,1.394-12.554,4.008-18.816,6.043a5.24,5.24,0,0,0-2.3,1.636c-5.364,5.847-10.762,11.664-16.113,17.51-1.959,2.135-3.722,4.4-4.37,7.117-.707,2.974,1.239,4.464,4.479,3.35,8.959-3.081,17.845-6.3,26.778-9.425a3.634,3.634,0,0,0,2.449-2.514c1.813-5.145,6.355-6.906,12.269-4.715a111.358,111.358,0,0,1,15.237,7c12.75,7.049,27.347,10.49,41.037,15.707,13.747,5.244,28.494,7.851,42.27,12.992,8.1,3.024,14.187,7.62,18.056,14.3,2.622,4.516-.328,10.725-5.917,12.541-4.574,1.488-9.007,1.823-13.884-.295-10.123-4.391-19.825-9.37-29.5-14.415q-18.917-9.861-37.883-19.664c-5.331-2.769-10.424-5.849-15.632-8.79-10.338-5.824-20.668-5.219-31.107-1.349-8.316,3.084-16.3,6.762-25.306,8.522-12.385,2.427-22.272-4.269-22.106-15.23.009-.674.093-1.352.142-2.032" transform="translate(-378.442 -274.501)" fill="#fff"/>
        <path id="Path_12" data-name="Path 12" d="M403.078,286.49c12.712,1.647,24.588-1.279,36.449-4.078a9.96,9.96,0,0,0,5.622-3.551c3.149-4.007,6.318-7.956,7.541-12.835.674-2.69,3.589-3.721,7.346-2.845,6.173,1.44,10.775,4.546,13.174,9.658,1.014,2.15,2.3,2.768,4.964,2.236,8.742-1.747,17.8-.955,26.686-1.568a114.388,114.388,0,0,1,17.477.006c2.308.2,3.362-.608,3.5-2.577a24.089,24.089,0,0,0-.44-6.4c-.685-3.408.455-4.771,4.42-4.284,8.56,1.047,16.192,3.84,19.993,11.046,1.785,3.369,4.1,4.844,8.344,4.85a35.055,35.055,0,0,1,14.575,3.319,13.65,13.65,0,0,1,6.756,6.148c1.557,3.065-.309,6.236-4.186,6.839a34.12,34.12,0,0,1-13.3-.82c-7.006-1.734-11.981.094-16.077,4.731a60.833,60.833,0,0,0-5.549,7.257c-5.345,8.308-14.388,8.093-22.888,5.43-3.11-.972-4.486-3.539-3.6-6.231.952-2.883,2.186-5.687,3.32-8.522,1.225-3.042.755-3.688-3.1-3.331-6.367.578-12.752,1.174-19.031,2.164-7.633,1.2-15.149,2.852-22.734,4.245a26.512,26.512,0,0,1-6.43.757c-3.9-.264-5.774,1.434-7.3,4.082-2.4,4.151-5.055,8.194-7.575,12.289-3.456,5.608-8.724,6.126-13.467,1.032-3.086-3.32-6.915-6.366-6.792-11.237.057-2.041-2.618-1.572-4.167-1.569a200.282,200.282,0,0,1-22.344-1.308c-9.645-1.063-15.449-5.176-17.5-12.221-.9-3.094-.456-3.741,3.273-3.614,4.35.146,8.7.586,13.043.9" transform="translate(-376.602 -260.154)" fill="#fff"/>
        <path id="Path_13" data-name="Path 13" d="M402.55,332.72c2.4.133,4.794.645,7.2.247,5.881-.973,8.506-4.1,8.851-10.3.054-1.051-.89-2.548.923-3.066a5.667,5.667,0,0,1,4.835,1.019,8.361,8.361,0,0,1,3.485,4.969c.37,1.49,1.12,1.98,3.12,1.838,5.548-.4,11.142-1.225,16.708.346,1.308.369,2.668.625,3.935,1.078a4.063,4.063,0,0,1,3.043,3.629c.109,1.709-1.177,2.709-2.74,3.353a49.958,49.958,0,0,1-4.812,1.436c-6.669,1.958-13.082,4.471-19.955,5.981-2.769.61-2.605,2.961-3.352,4.686-1.775,4.133-1.706,4.1,3.487,3.789,6.045-.359,12.081-1.084,18.177-.469,5.164.519,9.888,1.948,13.4,5.513,1.081,1.1,2,2.283,1.179,3.721-.833,1.462-2.606,1.685-4.154,1.344-4.88-1.079-9.816-.438-14.688-.865-6.866-.6-12.8,1.444-18.78,3.555-.869.31-1.724.8-1.643,1.67.432,4.62-3.028,7.468-6.227,10.462q-6.588,6.194-13.1,12.452c-.787.763-1.927,1.61-1.322,2.785s2.113,1.031,3.349,1.125c5.482.409,7.756-.686,9.92-4.879a53,53,0,0,0,2.449-5.4c1.166-3.069,4.879-5.535,8.753-5.655,5.027-.159,8.777,2.389,9.052,6.775.165,2.573,1.494,3.652,4.08,4.313,1.987.505,3.94,1.117,5.873,1.76,1.164.383,2.566.74,2.521,2.1-.043,1.167-1.291,1.515-2.329,1.87a37.211,37.211,0,0,1-3.889,1.078,54.172,54.172,0,0,0-9.842,3.248c-2.7,1.189-4.946,5.044-4.528,7.489.206,1.21,1.122,1.008,2.042.915,8.047-.81,16.306-.056,24.208-1.917.627-.147,1.408-.45,1.927.11.674.716-.014,1.3-.541,1.761-5.128,4.385-9.564,9.045-18.26,9.338-11.192.379-20.863,5.177-30.432,9.668a3.468,3.468,0,0,0-2.165,2.47c-.431,2.543-2.458,2.884-5,2.817-8.254-.218-12.564-3.752-12.968-10.718-.216-3.655,1.588-5.671,5.806-5.074,7.617,1.074,11.842-2.848,16.328-6.667,1.485-1.265,1.4-2.19-.664-3.107a22.547,22.547,0,0,1-9.832-7.709c-1.072-1.588-2.093-1.022-3.33-.306-5.256,3.053-7.506,3.177-11.265.678-4.221-2.8-6.661-8.606-5.151-12.235a7.207,7.207,0,0,1,2.047-2.262c3.394-3.1,6.791-6.19,10.086-9.36,2.17-2.083,1.961-2.757-1.262-3.411-4.507-.923-7.267-3.249-8.583-6.919-1.162-3.213.2-4.675,4.145-4.275,6.8.692,13.31.164,19.228-2.807a16.94,16.94,0,0,0,8.31-8.123c.686-1.551.367-2.312-1.839-2.452a19.278,19.278,0,0,1-10.681-3.806,12.365,12.365,0,0,1-2.715-2.659c-1.4-2.016-2.107-4.383-.86-6.42,1.159-1.891,3.741-.638,5.7-.71a24.465,24.465,0,0,1,2.748.18" transform="translate(-375.775 -264.785)" fill="#fff"/>
        <path id="Path_14" data-name="Path 14" d="M549.389,369.844c-.244-4.1,1.111-8.213,2.525-12.276.718-2.06.025-2.775-2.323-2.613-3.875.262-7.744.577-11.617.879-2.3.177-3.745,1.129-4.255,3.13-.7,2.741-1.6,5.442-2.344,8.17-.6,2.215,0,3.626,2.841,4.838,4.436,1.9,8.462,4.507,10.148,8.835.434,1.121.887,2.362-.52,3.191-1.489.882-2.537-.086-3.6-.87-3.287-2.434-7.282-2.181-11.165-2.238-1.718-.024-2.162,1.187-2.588,2.317-1.9,5.054-3.88,10.085-5.705,15.16-2.206,6.153-6.972,7.466-13.167,3.561-3.08-1.937-4.893-4.705-6.874-7.351-1.8-2.409-3.282-4.989-5.177-7.335-4.258-5.278-3.572-11.645,5.748-13.262,7.553-1.307,8.8-6.181,10.8-10.93.715-1.7-.235-2.455-2.227-2.1-5.573.976-11.212.067-16.81.164-3.937.069-9.586-3.737-10.645-7.019-.636-1.965.62-3.112,3.518-2.941,4.358.262,8.7.041,13.042-.049,6.895-.143,12.847-2.506,18.59-5.277,3.593-1.728,4.182-5.079,5.072-8.166a15.7,15.7,0,0,0,.2-2.03c.627-4.239,3.684-5.316,7.894-2.731a20.348,20.348,0,0,1,6.566,6.8c1.466,2.354,3.573,2.751,6.3,2.582a77.983,77.983,0,0,1,25.733,2.636c6.417,1.769,8.534,4.74,8.288,10.283-.311,7.248-2.823,14.108-4.41,21.13-2.388,10.55-.931,20.467,6.932,29.5,1.141,1.311,3.448,2.825,1.972,4.611-1.516,1.841-4.222.882-6.44.692a13.415,13.415,0,0,1-5.3-2.094c-13.379-7.357-19-18.335-20.872-31.088a35.736,35.736,0,0,1-.124-8.109" transform="translate(-384.096 -265.73)" fill="#fff"/>
        <path id="Path_15" data-name="Path 15" d="M496.649,419.731a55.411,55.411,0,0,1,15.689,4.285c.915.38,2.067.849,1.868,1.893-.233,1.2-1.539.952-2.516.87-4.23-.367-7.87,1.086-11.412,2.583C487.865,434.608,475.172,439.428,463,445c-10.425,4.777-18.829,1.6-27.518-3.064a7.235,7.235,0,0,1-1.969-1.652c-1.264-1.44-1.063-3.023,1.15-2.9,12.454.658,20.876-6.467,30.654-10.814,9.85-4.375,19.775-7.838,31.331-6.829" transform="translate(-380.226 -272.61)" fill="#fff"/>
        <path id="Path_16" data-name="Path 16" d="M456.595,391.376a33.648,33.648,0,0,0-10.566-1.816c-3,.008-3.784-2.913-3.441-5.259a37.8,37.8,0,0,1,1.7-5.9c1.3-4.082.193-6.541-4.1-8.97-.654-.367-1.623-.538-1.408-1.435.174-.755.925-1.04,1.74-1.182a5.824,5.824,0,0,1,2-.264c10.613,2.143,20.425,8.287,21.6,18.227.452,3.815-3.019,7.071-7.532,6.6" transform="translate(-380.696 -268.466)" fill="#fff"/>
      </g>
    </g>
    <g id="Group_6" data-name="Group 6" transform="translate(81.616 555.311)">
      <path id="Path_17" data-name="Path 17" d="M98.8,623.314q-.271,1.238-.854,4.584a27.133,27.133,0,0,1-2.965.538,19.561,19.561,0,0,1-2.023.113,12.823,12.823,0,0,1-2.977-.314,4.69,4.69,0,0,1-2.169-1.114,4.051,4.051,0,0,1-1.158-1.864,8.1,8.1,0,0,1-.3-2.214c0-.193.01-.456.024-.786s.074-1.395.181-3.191l.513-9.349H83.837q.112-1.345.2-4.333h3.384q.131-1.3.268-4.429l2.658-.514q.832-.159,3.216-.744-.162,3.034-.183,5.687h5.711q-.158,3.032-.157,4.333H93.208q-.473,9.151-.475,10.586a6.07,6.07,0,0,0,.3,2.156,2,2,0,0,0,.978,1.1,3.178,3.178,0,0,0,1.439.337,8.359,8.359,0,0,0,1.181-.087Q97.251,623.72,98.8,623.314Z" transform="translate(-83.837 -596.98)" fill="#fff"/>
      <path id="Path_18" data-name="Path 18" d="M115.19,628l-.494-4.943a24.97,24.97,0,0,0,3.726,1.249,12.721,12.721,0,0,0,2.81.347,6.531,6.531,0,0,0,2.154-.305,2.547,2.547,0,0,0,1.306-.9,2.1,2.1,0,0,0,.428-1.249,2.4,2.4,0,0,0-.057-.539,2.066,2.066,0,0,0-.2-.515,3.442,3.442,0,0,0-.338-.507,4.67,4.67,0,0,0-.528-.537c-.223-.2-.546-.462-.963-.775l-1.215-.966c-1.168-.916-2.06-1.633-2.673-2.158a10.589,10.589,0,0,1-1.551-1.607,6.436,6.436,0,0,1-.954-1.728,5.4,5.4,0,0,1,.674-4.978,5.708,5.708,0,0,1,2.91-2.168,13.273,13.273,0,0,1,4.494-.686,38.47,38.47,0,0,1,6.784.7l.294,4.694a13.357,13.357,0,0,0-5.012-1.057,8.99,8.99,0,0,0-2.279.26,2.6,2.6,0,0,0-1.4.787,1.822,1.822,0,0,0-.427,1.177,2.194,2.194,0,0,0,.133.756,2.614,2.614,0,0,0,.475.772,5.513,5.513,0,0,0,.773.765c.294.237.9.712,1.832,1.415s1.74,1.339,2.437,1.909a10.887,10.887,0,0,1,1.718,1.719,6.76,6.76,0,0,1,1.033,1.853,5.768,5.768,0,0,1,.36,2,5.248,5.248,0,0,1-1.035,3.125,6.684,6.684,0,0,1-3.123,2.249,12.925,12.925,0,0,1-4.67.806,30.681,30.681,0,0,1-3.281-.214A32.379,32.379,0,0,1,115.19,628Z" transform="translate(-86.248 -597.398)" fill="#fff"/>
      <path id="Path_19" data-name="Path 19" d="M151.871,610.587c.208-1.078.342-1.833.394-2.269s.148-1.092.28-1.977a52.151,52.151,0,0,1,5.392-1.012,36.568,36.568,0,0,1,4.516-.292,16.959,16.959,0,0,1,4.541.572,6.752,6.752,0,0,1,3.231,1.833,5.119,5.119,0,0,1,1.169,3.616q0,1.278-.356,6.526t-.423,10.842q-1.711-.047-3.149-.046-1.372,0-3.215.046.294-2.719.478-6.293l.294-5.593a14.233,14.233,0,0,1-1.3.786,8.483,8.483,0,0,1-1.011.417q-.563.19-1.979.583c-.945.262-1.7.489-2.269.684a10.007,10.007,0,0,0-1.544.665,5.081,5.081,0,0,0-1.157.83,3.056,3.056,0,0,0-.687.966,2.822,2.822,0,0,0-.213,1.09,2.5,2.5,0,0,0,.553,1.629,2.856,2.856,0,0,0,1.381.953,6.317,6.317,0,0,0,1.954.271,10.794,10.794,0,0,0,1.516-.112,13.024,13.024,0,0,0,2.146-.561,38.829,38.829,0,0,0-1.1,3.82c-1.063.181-1.908.29-2.54.338s-1.209.066-1.751.066a12.094,12.094,0,0,1-4.653-.765,5.162,5.162,0,0,1-2.684-2.425,7.191,7.191,0,0,1-.865-3.347,5.687,5.687,0,0,1,1.328-3.639,8.645,8.645,0,0,1,1.684-1.519,12.614,12.614,0,0,1,2.991-1.415,45.483,45.483,0,0,1,5.17-1.382c.57-.117,1.162-.266,1.778-.436a11.026,11.026,0,0,0,1.472-.507,3.27,3.27,0,0,0,.955-.641,2.655,2.655,0,0,0,.593-.82,2.149,2.149,0,0,0-.38-2.359,3.054,3.054,0,0,0-1.482-.842,8.03,8.03,0,0,0-2.015-.235A24.83,24.83,0,0,0,151.871,610.587Z" transform="translate(-88.914 -597.398)" fill="#fff"/>
      <path id="Path_20" data-name="Path 20" d="M203.264,605.037a15.794,15.794,0,0,1,4.953.777,10.814,10.814,0,0,1,4.022,2.289,9.628,9.628,0,0,1,2.486,3.709,13,13,0,0,1,.83,4.618,14.206,14.206,0,0,1-.878,4.942,11.763,11.763,0,0,1-2.54,4.124,10.274,10.274,0,0,1-4.144,2.607,16.031,16.031,0,0,1-5.293.864,15.761,15.761,0,0,1-4.955-.774,10.7,10.7,0,0,1-4.007-2.326,10.061,10.061,0,0,1-2.529-3.776,12.768,12.768,0,0,1-.864-4.649,14.085,14.085,0,0,1,.788-4.718,10.981,10.981,0,0,1,2.459-4A11.165,11.165,0,0,1,197.872,606,15.412,15.412,0,0,1,203.264,605.037Zm0,4.63a6.447,6.447,0,0,0-3.479.953,5.7,5.7,0,0,0-2.283,2.844,11.071,11.071,0,0,0-.75,4.111,9.264,9.264,0,0,0,.616,3.484,5.343,5.343,0,0,0,2.014,2.471,5.818,5.818,0,0,0,3.322.94,6.129,6.129,0,0,0,3.462-.977,5.921,5.921,0,0,0,2.24-2.874,11.352,11.352,0,0,0,.75-4.19,9.447,9.447,0,0,0-.584-3.393,5.066,5.066,0,0,0-1.957-2.449A5.906,5.906,0,0,0,203.261,609.667Z" transform="translate(-92.16 -597.398)" fill="#fff"/>
      <path id="Path_21" data-name="Path 21" d="M233.639,628l-.494-4.943a24.922,24.922,0,0,0,3.725,1.249,12.728,12.728,0,0,0,2.811.347,6.532,6.532,0,0,0,2.154-.305,2.548,2.548,0,0,0,1.306-.9,2.107,2.107,0,0,0,.428-1.249,2.4,2.4,0,0,0-.057-.539,2.169,2.169,0,0,0-.2-.515,3.844,3.844,0,0,0-.338-.507,4.5,4.5,0,0,0-.531-.537c-.222-.2-.545-.462-.962-.775l-1.215-.966c-1.168-.916-2.06-1.633-2.673-2.158a10.472,10.472,0,0,1-1.549-1.607,6.373,6.373,0,0,1-.958-1.728,5.4,5.4,0,0,1,.674-4.978,5.714,5.714,0,0,1,2.911-2.168,13.269,13.269,0,0,1,4.494-.686,38.471,38.471,0,0,1,6.784.7l.294,4.694a13.346,13.346,0,0,0-5.012-1.057,8.985,8.985,0,0,0-2.279.26,2.6,2.6,0,0,0-1.4.787,1.823,1.823,0,0,0-.428,1.177,2.174,2.174,0,0,0,.134.756,2.614,2.614,0,0,0,.475.772,5.552,5.552,0,0,0,.772.765c.294.237.9.712,1.833,1.415s1.742,1.339,2.438,1.909a11.023,11.023,0,0,1,1.719,1.719,6.8,6.8,0,0,1,1.031,1.853,5.767,5.767,0,0,1,.361,2,5.255,5.255,0,0,1-1.035,3.125,6.683,6.683,0,0,1-3.123,2.249,12.925,12.925,0,0,1-4.67.806,30.685,30.685,0,0,1-3.281-.214A32.381,32.381,0,0,1,233.639,628Z" transform="translate(-95.504 -597.398)" fill="#fff"/>
      <path id="Path_22" data-name="Path 22" d="M268.705,627.81l.535-7.3.537-10.448.314-12.92c1.32.031,2.412.047,3.285.047q1.709,0,3.261-.047l-.408,5.349q-.134,1.976-.36,6.355a15.622,15.622,0,0,1,1.2-1.615,7.827,7.827,0,0,1,1.08-1,7.292,7.292,0,0,1,1.225-.778,8.79,8.79,0,0,1,1.471-.558,12.264,12.264,0,0,1,1.874-.383,16.139,16.139,0,0,1,2.115-.136,14.794,14.794,0,0,1,3.584.428,7.487,7.487,0,0,1,2.965,1.439,5.145,5.145,0,0,1,1.708,2.371,8.754,8.754,0,0,1,.46,2.839q0,.967-.113,3.013l-.546,9.819q-.065,1.529-.066,3.527c-1.211-.031-2.284-.046-3.209-.046q-1.5,0-3.435.046.311-2.652.61-7.237t.3-6.516a5.627,5.627,0,0,0-.571-2.775,3.457,3.457,0,0,0-1.683-1.48,6.01,6.01,0,0,0-2.433-.484,6.975,6.975,0,0,0-3,.607,5.378,5.378,0,0,0-2.11,1.752,8.424,8.424,0,0,0-1.164,2.762,32.59,32.59,0,0,0-.718,5.84q-.114,1.912-.251,7.53-1.78-.047-3.062-.046C271.291,627.764,270.157,627.779,268.705,627.81Z" transform="translate(-98.283 -596.78)" fill="#fff"/>
      <path id="Path_23" data-name="Path 23" d="M313.279,627.78q.342-3.373.48-5.642.228-3.592.4-8.288t.24-8.922q2.187.047,3.284.046c.671,0,1.754-.015,3.261-.046q-.3,3.915-.491,7.461t-.271,8.133q-.086,4.587-.086,7.259-2.046-.047-3.285-.046Q315.643,627.734,313.279,627.78Zm1.234-26.761q.086-2.312.085-3.55v-.719c1.367.031,2.474.045,3.329.045q1.751,0,3.257-.045c-.044.375-.076.8-.089,1.282l-.113,2.987c-1.137-.028-2.187-.044-3.145-.044S315.772,600.992,314.513,601.019Z" transform="translate(-101.765 -596.75)" fill="#fff"/>
      <path id="Path_24" data-name="Path 24" d="M339.065,627.81l.538-7.3.536-10.448.313-12.92q1.979.046,3.285.047,1.709,0,3.261-.047l-.407,5.349q-.134,1.976-.361,6.355a15.225,15.225,0,0,1,1.2-1.615,8.187,8.187,0,0,1,1.077-1,7.661,7.661,0,0,1,1.225-.778,9.116,9.116,0,0,1,1.471-.558,12.262,12.262,0,0,1,1.88-.383,16.082,16.082,0,0,1,2.113-.136,14.813,14.813,0,0,1,3.583.428,7.5,7.5,0,0,1,2.964,1.439,5.114,5.114,0,0,1,1.707,2.371,8.735,8.735,0,0,1,.461,2.839q0,.967-.111,3.013l-.544,9.819q-.072,1.529-.072,3.527c-1.209-.031-2.281-.046-3.209-.046q-1.5,0-3.431.046.31-2.652.61-7.237t.3-6.516a5.6,5.6,0,0,0-.573-2.775,3.473,3.473,0,0,0-1.683-1.48,6.028,6.028,0,0,0-2.434-.484,6.994,6.994,0,0,0-3.006.607,5.407,5.407,0,0,0-2.107,1.752,8.423,8.423,0,0,0-1.164,2.762,32.6,32.6,0,0,0-.719,5.84q-.115,1.912-.253,7.53-1.776-.047-3.058-.046C341.654,627.764,340.523,627.779,339.065,627.81Z" transform="translate(-103.78 -596.78)" fill="#fff"/>
      <path id="Path_25" data-name="Path 25" d="M409.088,627.8l.4-5.324.566-11.8.269-8.563c.015-.779.019-1.564.019-2.36,0-.584,0-1.462-.019-2.629q2.875.046,4.671.047,1.438,0,4-.066t4.069-.071a16.826,16.826,0,0,1,4.558.451,7.343,7.343,0,0,1,2.72,1.55,6.925,6.925,0,0,1,1.776,2.541,9.424,9.424,0,0,1,.674,3.572,9.919,9.919,0,0,1-1.448,5.268,8.95,8.95,0,0,1-4.01,3.54,13.552,13.552,0,0,1-5.687,1.169,18.145,18.145,0,0,1-3.256-.315q-.5-2.334-1.126-4.382a13.447,13.447,0,0,0,2.759.293,8.482,8.482,0,0,0,3.228-.561,4.594,4.594,0,0,0,2.174-1.832,5.244,5.244,0,0,0,.807-2.863,4.366,4.366,0,0,0-.338-1.731,2.957,2.957,0,0,0-.978-1.257,3.6,3.6,0,0,0-1.408-.641,10.941,10.941,0,0,0-2.208-.167c-.84,0-1.68.016-2.535.043s-1.6.045-2.263.045q-.267,4.4-.4,8.424l-.268,8.586q-.13,4.558-.133,6.694,0,.811.022,2.337l-3.26-.046Q411.83,627.756,409.088,627.8Z" transform="translate(-109.252 -596.773)" fill="#fff"/>
      <path id="Path_26" data-name="Path 26" d="M462.71,605.037a15.811,15.811,0,0,1,4.953.777,10.8,10.8,0,0,1,4.022,2.289,9.592,9.592,0,0,1,2.484,3.709,12.932,12.932,0,0,1,.832,4.618,14.182,14.182,0,0,1-.879,4.942,11.779,11.779,0,0,1-2.536,4.124,10.317,10.317,0,0,1-4.147,2.607,16.027,16.027,0,0,1-5.29.864,15.733,15.733,0,0,1-4.955-.774,10.7,10.7,0,0,1-4.012-2.326,10.093,10.093,0,0,1-2.529-3.776,12.783,12.783,0,0,1-.864-4.649,14.134,14.134,0,0,1,.788-4.718,11,11,0,0,1,2.459-4A11.185,11.185,0,0,1,457.319,606,15.392,15.392,0,0,1,462.71,605.037Zm0,4.63a6.447,6.447,0,0,0-3.48.953,5.71,5.71,0,0,0-2.283,2.844,11.055,11.055,0,0,0-.75,4.111,9.186,9.186,0,0,0,.618,3.484,5.333,5.333,0,0,0,2.012,2.471,5.821,5.821,0,0,0,3.325.94,6.121,6.121,0,0,0,3.457-.977,5.912,5.912,0,0,0,2.24-2.874,11.316,11.316,0,0,0,.75-4.19,9.469,9.469,0,0,0-.583-3.393,5.056,5.056,0,0,0-1.959-2.449A5.9,5.9,0,0,0,462.707,609.667Z" transform="translate(-112.433 -597.398)" fill="#fff"/>
      <path id="Path_27" data-name="Path 27" d="M507.722,623.314q-.271,1.238-.855,4.584a27.013,27.013,0,0,1-2.965.538,19.456,19.456,0,0,1-2.019.113,12.841,12.841,0,0,1-2.978-.314,4.689,4.689,0,0,1-2.168-1.114,4.03,4.03,0,0,1-1.158-1.864,7.964,7.964,0,0,1-.3-2.214c0-.193.009-.456.023-.786s.072-1.395.181-3.191l.512-9.349H492.76c.073-.9.143-2.34.2-4.333h3.386q.133-1.3.268-4.429l2.656-.514c.556-.106,1.625-.353,3.215-.744q-.157,3.034-.181,5.687h5.711q-.156,3.032-.157,4.333H502.13q-.477,9.151-.475,10.586a5.983,5.983,0,0,0,.3,2.156,1.975,1.975,0,0,0,.978,1.1,3.173,3.173,0,0,0,1.437.337,8.308,8.308,0,0,0,1.18-.087Q506.175,623.72,507.722,623.314Z" transform="translate(-115.79 -596.98)" fill="#fff"/>
      <path id="Path_28" data-name="Path 28" d="M538.75,623.314q-.271,1.238-.855,4.584a26.919,26.919,0,0,1-2.967.538,19.357,19.357,0,0,1-2.019.113,12.872,12.872,0,0,1-2.978-.314,4.688,4.688,0,0,1-2.167-1.114,4.018,4.018,0,0,1-1.158-1.864,8.023,8.023,0,0,1-.3-2.214c0-.193.006-.456.022-.786s.073-1.395.18-3.191l.515-9.349h-3.235c.074-.9.146-2.34.2-4.333h3.384q.136-1.3.268-4.429l2.656-.514q.834-.159,3.219-.744-.159,3.034-.182,5.687h5.712q-.16,3.032-.159,4.333h-5.732q-.47,9.151-.47,10.586a5.983,5.983,0,0,0,.3,2.156,1.967,1.967,0,0,0,.978,1.1,3.162,3.162,0,0,0,1.436.337,8.283,8.283,0,0,0,1.178-.087C536.993,623.75,537.714,623.584,538.75,623.314Z" transform="translate(-118.214 -596.98)" fill="#fff"/>
      <path id="Path_29" data-name="Path 29" d="M576.184,623.327q-.293,1.325-.834,4.763-2.424.517-4.09.7a30.786,30.786,0,0,1-3.345.18,21.675,21.675,0,0,1-5.269-.584,9.523,9.523,0,0,1-4.079-2.143,9.327,9.327,0,0,1-2.583-3.828,13.727,13.727,0,0,1-.834-4.756,15.161,15.161,0,0,1,.969-5.355,11.091,11.091,0,0,1,2.706-4.245,9.978,9.978,0,0,1,3.967-2.335,15.756,15.756,0,0,1,4.652-.683,16.239,16.239,0,0,1,4.359.572,8.24,8.24,0,0,1,3.47,1.874,8.768,8.768,0,0,1,2.157,3.127,10.624,10.624,0,0,1,.752,4.07,11.307,11.307,0,0,1-.223,2.176l-16.471.022c-.029.553-.044,1-.044,1.326a7.266,7.266,0,0,0,.513,2.763,5.744,5.744,0,0,0,1.508,2.137,6.221,6.221,0,0,0,2.358,1.291,9.321,9.321,0,0,0,2.7.415,18.408,18.408,0,0,0,3.355-.339A35.087,35.087,0,0,0,576.184,623.327Zm-14.516-9.076,10.513.021a13.236,13.236,0,0,0-.066-1.587,5.817,5.817,0,0,0-.3-1.177,3.972,3.972,0,0,0-.641-1.163,3.751,3.751,0,0,0-.945-.84,4.3,4.3,0,0,0-1.244-.512,6.168,6.168,0,0,0-1.519-.18,5.862,5.862,0,0,0-1.83.29,5.513,5.513,0,0,0-1.63.852,5.075,5.075,0,0,0-1.2,1.252,6.209,6.209,0,0,0-.686,1.331A13.729,13.729,0,0,0,561.669,614.251Z" transform="translate(-120.665 -597.398)" fill="#fff"/>
      <path id="Path_30" data-name="Path 30" d="M596.27,628.427l.652-10.674.177-6.2q.047-1.908.046-3.843,0-.335-.046-2.134c1.394.032,2.418.046,3.079.046q1.145,0,3.033-.046l-.109,3.17a13.684,13.684,0,0,1,1.456-1.81,6.539,6.539,0,0,1,1.363-1.023,6.652,6.652,0,0,1,1.671-.652,7.882,7.882,0,0,1,3.731,0q0,2.093.2,5.3a9.267,9.267,0,0,0-2.4-.359,6.22,6.22,0,0,0-2.3.393,5.25,5.25,0,0,0-1.8,1.189,6.517,6.517,0,0,0-1.315,1.968,8.862,8.862,0,0,0-.627,2.448q-.177,1.169-.3,4t-.12,5.572c0,.7.022,1.589.066,2.651-1.138-.031-2.183-.046-3.127-.046S597.558,628.4,596.27,628.427Z" transform="translate(-123.878 -597.398)" fill="#fff"/>
      <path id="Path_31" data-name="Path 31" d="M625.046,638.785c-.271-2.247-.484-3.865-.652-4.855a9.606,9.606,0,0,0,4.069,1.015,5.119,5.119,0,0,0,1.191-.148,4.91,4.91,0,0,0,1.12-.416,3.057,3.057,0,0,0,.688-.516,8.388,8.388,0,0,0,.956-1.234,17.48,17.48,0,0,0,1.055-1.773,16.255,16.255,0,0,0,.738-1.886l-4.67-13.661-3.418-9.692q2.363.047,3.394.046,1.191,0,3.123-.046c.314,1.247.608,2.325.877,3.24l2.137,7.054q.992,3.261,1.416,4.9c.179.716.388,1.67.631,2.852q.669-2.044,1.167-3.325.874-2.34,2.444-6.249l2.179-5.368q.584-1.438,1.186-3.1c1.349.032,2.379.046,3.082.046.645,0,1.722-.015,3.236-.046L642.348,625l-3.753,8.553a14.071,14.071,0,0,1-1.507,2.583,7.521,7.521,0,0,1-1.28,1.347,7.115,7.115,0,0,1-1.437.9,11.225,11.225,0,0,1-2.092.72,12.679,12.679,0,0,1-2.582.268c-.494,0-1.183-.043-2.067-.133A18.67,18.67,0,0,1,625.046,638.785Z" transform="translate(-126.076 -597.443)" fill="#fff"/>
    </g>
  </g>
</svg>
